<?xml version="1.0" standalone="no"?>
<!DOCTYPE svg PUBLIC "-//W3C//DTD SVG 20010904//EN"
 "http://www.w3.org/TR/2001/REC-SVG-20010904/DTD/svg10.dtd">
<svg version="1.0" xmlns="http://www.w3.org/2000/svg"
 width="750.000000pt" height="750.000000pt" viewBox="0 0 750.000000 750.000000"
 preserveAspectRatio="xMidYMid meet">

<g transform="translate(0.000000,750.000000) scale(0.100000,-0.100000)"
fill="#000000" stroke="none">
<path d="M3430 7151 c-8 -5 -51 -12 -95 -16 -44 -4 -111 -14 -150 -22 -38 -8
-77 -15 -85 -15 -8 0 -49 -9 -90 -20 -41 -11 -100 -27 -130 -35 -99 -25 -114
-30 -205 -61 -144 -49 -320 -124 -465 -198 -74 -38 -139 -72 -145 -77 -5 -4
-39 -26 -75 -49 -139 -88 -178 -115 -275 -187 -238 -179 -520 -464 -716 -726
-123 -165 -297 -470 -381 -670 -95 -227 -177 -496 -214 -704 -39 -215 -44
-294 -44 -651 0 -357 7 -458 49 -677 30 -156 122 -461 182 -600 21 -51 39 -95
39 -98 0 -15 144 -291 195 -375 112 -184 158 -247 353 -493 44 -56 297 -311
347 -350 22 -17 63 -52 92 -78 63 -57 311 -230 410 -288 200 -116 566 -278
709 -315 34 -9 77 -22 96 -30 19 -8 86 -27 149 -41 63 -14 130 -30 149 -35 19
-5 62 -12 95 -16 33 -3 98 -12 144 -20 101 -17 702 -20 796 -4 33 6 94 15 135
20 79 10 125 20 255 52 44 10 98 24 120 29 22 6 49 14 60 19 11 5 49 16 85 25
58 14 150 48 295 107 69 28 329 159 390 196 28 17 70 43 95 58 71 43 253 172
353 252 206 164 473 456 642 702 103 149 115 168 115 176 0 4 6 15 14 23 24
28 196 359 196 377 0 3 15 40 34 82 35 80 71 184 101 287 9 33 24 82 32 109
32 101 53 207 85 416 20 128 23 185 23 485 0 273 -3 363 -17 455 -33 213 -66
375 -97 475 -11 33 -31 101 -46 150 -123 412 -405 892 -732 1250 -265 289
-576 531 -913 709 -152 81 -246 126 -260 126 -6 0 -18 4 -28 10 -59 34 -298
121 -372 135 -19 4 -39 10 -45 14 -32 20 -362 82 -577 109 -91 11 -659 14
-678 3z m240 -226 c29 -31 48 -32 52 -3 2 13 10 24 19 26 18 3 29 -32 32 -107
2 -37 -1 -45 -21 -52 -18 -7 -24 -5 -28 9 -27 81 -52 98 -153 96 -72 -2 -105
-20 -134 -75 -26 -49 -21 -196 9 -235 37 -50 68 -66 136 -70 57 -4 66 -1 97
25 19 15 39 43 45 62 12 37 51 53 62 25 7 -18 -29 -97 -54 -118 -80 -69 -241
-59 -313 19 -56 61 -63 82 -63 183 0 86 2 98 26 133 15 20 48 53 75 72 43 30
55 34 119 34 63 1 73 -2 94 -24z m509 14 c155 -49 205 -133 184 -308 -5 -48
-12 -60 -64 -112 l-57 -59 -89 0 c-68 0 -99 5 -129 19 -42 21 -104 80 -107
102 -2 8 -6 20 -11 28 -12 19 -9 136 4 160 5 11 10 28 10 38 0 43 139 142 199
143 14 0 41 -5 60 -11z m379 -88 c9 -6 38 -13 64 -16 26 -3 50 -10 53 -16 4
-5 15 -9 26 -9 23 0 26 -28 3 -37 -8 -3 -20 -1 -27 6 -22 22 -45 12 -57 -26
-6 -21 -16 -48 -22 -60 -6 -11 -8 -27 -6 -35 3 -7 -2 -29 -10 -47 -7 -19 -16
-44 -19 -55 -4 -19 -19 -87 -23 -111 -5 -24 2 -33 33 -39 31 -6 37 -7 67 -19
8 -3 29 -8 46 -11 36 -6 64 17 64 51 0 29 28 52 40 32 10 -14 7 -38 -12 -101
-11 -37 -12 -38 -52 -32 -23 4 -56 13 -75 20 -18 8 -38 11 -43 8 -9 -6 -30 1
-81 28 -10 5 -22 6 -27 3 -5 -3 -11 -1 -15 5 -3 5 -21 10 -39 10 -30 0 -56 15
-56 32 0 4 19 8 43 8 l43 0 17 58 c9 32 17 68 17 79 0 12 4 24 9 28 6 3 13 27
17 53 3 26 10 52 14 57 4 6 10 25 14 44 7 38 -6 61 -35 61 -18 0 -26 20 -12
33 9 9 20 9 41 -2z m-1625 -97 c20 -50 24 -71 16 -85 -15 -28 -28 -23 -45 16
-24 57 -64 71 -150 50 -24 -5 -36 -17 -49 -46 -17 -36 -17 -40 -1 -64 20 -30
34 -34 163 -37 96 -3 103 -5 131 -31 16 -15 35 -45 41 -65 11 -34 10 -42 -9
-79 -32 -61 -79 -86 -163 -85 -56 0 -69 -2 -77 -18 -17 -31 -36 -13 -60 57
-20 59 -20 67 -7 81 14 14 18 11 38 -22 12 -20 34 -43 50 -51 32 -17 75 -20
84 -5 3 6 13 10 22 10 9 0 27 10 40 22 31 29 31 81 -1 113 -23 23 -30 24 -129
22 -122 -2 -149 8 -178 67 -24 50 -24 61 3 104 15 25 40 43 86 64 58 26 68 28
90 16 22 -11 26 -11 40 10 23 35 37 26 65 -44z m2147 -69 c25 -14 62 -33 82
-42 21 -10 40 -24 43 -31 7 -18 -24 -27 -46 -14 -10 7 -25 12 -33 12 -8 0 -42
-58 -81 -137 -91 -185 -88 -180 -82 -197 6 -14 88 -56 110 -56 6 0 19 -8 29
-17 18 -16 20 -16 43 12 14 17 27 38 30 48 8 22 34 22 42 0 5 -14 -33 -99 -57
-126 -4 -4 -29 3 -56 17 -27 13 -84 41 -127 61 -42 21 -80 42 -83 46 -3 5 -12
9 -20 9 -19 0 -60 38 -50 47 4 4 20 2 35 -4 16 -6 33 -8 38 -4 9 6 37 64 103
206 17 39 36 77 41 85 20 33 22 43 8 51 -36 20 -51 37 -45 47 10 17 25 14 76
-13z m-2582 -28 c17 -18 23 -38 25 -82 2 -70 -20 -92 -25 -23 -3 38 -6 43 -28
43 -29 0 -38 27 -19 61 15 30 20 30 47 1z m-141 -272 c40 -28 101 -69 135 -93
52 -37 65 -42 84 -33 12 5 25 7 28 4 16 -16 0 -34 -65 -73 -52 -32 -73 -40
-81 -32 -9 9 -6 18 10 35 25 26 19 40 -31 71 -26 16 -31 16 -62 2 -59 -28
-140 -87 -148 -108 -7 -20 -3 -59 8 -78 4 -6 23 -9 43 -8 42 3 52 -19 17 -37
-11 -6 -39 -23 -62 -38 -24 -15 -49 -27 -58 -27 -20 0 -19 24 1 41 11 9 14 21
9 38 -4 14 -11 55 -15 91 -5 36 -11 79 -14 95 -3 17 -10 64 -15 105 -6 41 -13
90 -16 107 -5 29 -2 35 26 52 l32 20 51 -42 c28 -24 84 -65 123 -92z m3203 30
c41 -30 110 -78 153 -107 42 -28 77 -56 77 -63 0 -6 -8 -20 -19 -31 -10 -11
-24 -30 -30 -42 -6 -12 -18 -22 -27 -22 -25 0 -28 30 -5 60 11 16 21 32 21 34
0 3 -31 26 -70 52 -38 25 -72 50 -76 55 -13 22 -45 6 -83 -42 -45 -56 -50 -76
-23 -86 9 -3 27 -17 40 -32 l23 -26 24 30 c18 22 27 27 36 18 12 -12 3 -53
-12 -53 -5 0 -9 -5 -9 -11 0 -19 -61 -89 -77 -89 -15 0 -15 12 2 66 5 15 0 23
-19 32 -14 6 -26 16 -26 22 0 26 -41 5 -78 -39 -40 -48 -56 -101 -31 -101 7 0
30 -15 53 -33 95 -76 118 -82 141 -37 16 32 42 40 51 16 6 -16 -40 -94 -61
-102 -18 -7 -48 9 -121 67 -34 27 -64 49 -67 49 -9 0 -125 80 -137 95 -22 26
3 42 34 21 14 -9 29 -16 34 -16 8 0 43 48 186 249 l39 55 -27 22 c-14 13 -26
28 -26 34 0 22 38 7 110 -45z m-1520 -165 c52 -5 118 -13 145 -19 28 -6 73
-11 101 -11 34 1 55 -4 64 -15 7 -8 21 -15 31 -15 11 0 27 -4 37 -9 16 -8 41
-15 147 -42 22 -6 44 -14 50 -20 5 -5 18 -9 30 -9 12 0 30 -7 41 -15 10 -8 26
-15 35 -15 15 0 141 -57 179 -80 8 -5 39 -21 69 -35 53 -25 87 -45 204 -120
97 -63 157 -108 157 -117 0 -5 9 -12 19 -16 30 -11 106 -77 221 -193 107 -108
220 -233 220 -243 0 -3 26 -41 58 -85 98 -135 213 -338 268 -476 6 -16 23 -57
37 -90 28 -66 51 -132 53 -155 1 -8 8 -31 16 -50 8 -20 18 -58 22 -85 5 -28
11 -54 14 -60 4 -5 7 -23 8 -40 2 -32 12 -81 22 -105 3 -8 7 -24 8 -35 6 -35
23 -318 24 -375 1 -107 -19 -336 -35 -405 -9 -38 -16 -79 -15 -90 0 -23 -18
-92 -31 -118 -5 -10 -7 -23 -3 -28 3 -6 2 -21 -4 -32 -6 -12 -20 -56 -32 -97
-12 -41 -32 -97 -45 -125 -13 -27 -33 -75 -45 -105 -34 -84 -117 -250 -143
-284 -13 -17 -36 -53 -52 -81 -15 -27 -43 -68 -62 -91 -18 -23 -33 -44 -33
-48 0 -32 -337 -386 -444 -467 -106 -79 -261 -189 -268 -189 -4 0 -33 -16 -64
-36 -31 -20 -70 -42 -87 -50 -18 -8 -39 -18 -47 -23 -80 -47 -312 -142 -360
-147 -8 -1 -28 -7 -45 -14 -16 -7 -41 -14 -55 -16 -14 -1 -43 -8 -65 -14 -22
-6 -49 -11 -60 -11 -11 1 -29 -3 -40 -8 -128 -58 -668 -68 -920 -18 -186 38
-266 57 -295 72 -16 8 -33 14 -37 13 -20 -4 -127 34 -218 77 -27 13 -57 26
-65 29 -8 3 -22 10 -30 15 -8 5 -35 19 -60 31 -25 12 -63 32 -85 45 -22 13
-62 36 -90 50 -27 15 -64 38 -82 51 -17 13 -36 24 -42 24 -5 0 -16 8 -23 18
-7 9 -31 29 -53 44 -22 15 -53 39 -70 53 -16 13 -34 28 -40 33 -72 58 -280
271 -335 342 -11 14 -35 43 -53 65 -35 43 -137 192 -137 201 0 3 -15 29 -34
57 -55 85 -156 287 -156 316 0 9 -7 25 -15 35 -8 11 -15 27 -15 35 0 9 -11 37
-24 62 -12 26 -26 66 -30 89 -4 24 -10 48 -14 54 -9 15 -31 106 -43 186 -5 36
-13 72 -16 80 -15 34 -35 275 -35 420 0 144 20 395 34 430 4 8 7 22 7 30 4 48
14 107 22 116 5 6 12 33 15 60 4 27 11 54 15 60 5 6 13 31 18 55 9 43 26 88
95 252 7 17 22 52 32 77 16 39 66 134 94 180 6 8 19 31 29 51 11 19 39 64 63
99 24 34 53 77 64 94 12 17 42 54 68 82 25 29 46 56 46 61 0 12 264 271 325
318 28 22 56 47 63 57 7 10 19 18 27 18 8 0 29 13 47 29 30 26 162 111 173
111 2 0 20 11 40 24 86 58 388 194 480 215 41 9 52 13 165 52 36 12 85 23 110
25 65 5 122 14 145 25 37 16 437 22 595 9z m-2212 -22 c41 -42 72 -86 72 -101
0 -25 -20 -30 -40 -12 -14 13 -37 18 -85 18 -65 0 -67 -1 -106 -43 -37 -40
-39 -45 -39 -108 0 -76 14 -107 79 -168 45 -44 125 -74 144 -55 6 6 21 11 33
11 29 0 92 73 100 115 13 71 -27 136 -64 102 -22 -20 -55 -23 -50 -4 4 17 122
127 136 127 20 0 24 -21 7 -46 -16 -25 -16 -27 30 -86 64 -81 63 -106 -4 -87
-9 3 -17 -7 -21 -28 -14 -64 -73 -128 -128 -139 -18 -3 -35 -10 -38 -15 -7
-12 -81 -12 -89 0 -3 5 -18 12 -33 16 -99 22 -208 231 -157 299 8 11 15 27 15
37 0 14 40 55 96 99 7 5 31 10 55 12 40 3 44 5 42 28 -4 54 10 62 45 28z
m4126 -167 c3 -5 22 -12 42 -16 54 -10 134 -92 134 -138 0 -40 20 -63 38 -45
9 9 16 8 29 -5 16 -16 14 -20 -41 -73 -70 -68 -86 -63 -61 21 11 41 13 61 6
68 -6 6 -11 19 -11 28 0 9 -19 35 -41 58 -39 38 -45 41 -97 41 -75 0 -128 -27
-175 -90 -62 -83 -63 -164 -4 -228 26 -28 73 -52 102 -52 30 0 87 20 104 36
13 11 11 17 -12 38 -30 28 -34 41 -13 49 20 8 138 -115 130 -136 -8 -21 -18
-22 -34 -2 -20 24 -32 19 -92 -41 -64 -63 -90 -67 -86 -12 2 26 -1 33 -17 36
-53 8 -67 15 -100 44 -45 39 -88 121 -87 168 0 77 92 199 172 229 19 7 44 17
55 21 27 12 53 12 59 1z m-4524 -206 c0 -8 -4 -15 -9 -15 -14 0 -22 -30 -12
-48 5 -8 25 -27 44 -41 20 -14 79 -62 133 -106 53 -44 106 -88 118 -97 l21
-17 -25 -26 c-24 -26 -26 -26 -115 -19 -49 3 -94 9 -100 13 -10 6 -121 25
-212 37 -61 8 -55 -11 23 -71 36 -27 90 -71 121 -97 58 -49 87 -59 97 -33 6
16 32 20 40 6 5 -8 -97 -143 -113 -149 -20 -7 -20 32 0 54 l21 22 -62 49 c-34
26 -76 63 -93 81 -16 17 -35 32 -40 32 -5 0 -27 16 -48 35 -45 41 -55 42 -85
14 -22 -21 -44 -19 -44 4 0 7 24 39 53 71 47 53 55 58 74 48 12 -7 37 -12 56
-12 18 0 37 -3 41 -7 4 -4 28 -8 54 -9 26 -1 67 -7 92 -13 49 -13 149 -20 155
-11 2 3 -17 22 -41 41 -49 37 -133 107 -176 145 -32 29 -44 30 -57 5 -14 -25
-40 -34 -47 -16 -4 9 8 31 27 54 19 22 42 51 52 65 19 28 57 35 57 11z m4966
-242 c20 -32 45 -68 56 -79 11 -12 20 -29 22 -37 1 -9 9 -24 18 -34 8 -10 23
-31 32 -48 9 -16 23 -39 31 -51 14 -19 13 -22 -29 -52 -24 -18 -51 -32 -60
-32 -24 0 -19 38 7 51 12 7 25 17 29 22 8 12 -13 57 -51 107 -14 19 -31 44
-37 55 -17 31 -38 29 -92 -10 -70 -50 -74 -73 -24 -118 16 -15 23 -16 46 -6
19 9 30 9 37 2 13 -13 -26 -52 -78 -80 -18 -9 -33 -21 -33 -25 0 -12 -25 -9
-38 4 -9 9 -6 18 15 40 l26 27 -28 41 c-15 22 -31 40 -35 40 -11 0 -128 -79
-136 -91 -3 -6 2 -19 11 -29 9 -10 26 -36 38 -58 28 -50 62 -92 75 -92 6 0 24
8 41 17 24 14 33 15 42 6 10 -10 9 -17 -6 -33 -10 -11 -23 -20 -28 -20 -6 0
-18 -7 -28 -16 -25 -23 -50 -10 -83 44 -16 26 -54 85 -85 132 -70 107 -82 130
-75 141 9 15 29 10 42 -11 17 -28 32 -25 92 15 29 19 54 35 56 35 2 0 18 10
37 23 19 12 59 38 90 57 53 33 70 61 47 75 -5 3 -10 15 -10 26 0 36 30 19 66
-38z m302 -493 c3 -8 11 -23 19 -32 9 -10 15 -39 15 -73 1 -48 4 -58 20 -63
32 -8 16 -36 -37 -62 -54 -27 -96 -32 -102 -13 -2 6 9 19 26 28 38 19 51 43
51 94 0 53 -18 89 -51 107 -40 20 -62 17 -88 -10 -24 -26 -24 -22 -5 -196 5
-47 2 -60 -18 -90 -28 -41 -84 -64 -134 -54 -41 8 -104 73 -104 108 0 14 -5
28 -11 32 -11 6 -9 32 6 67 5 13 2 17 -12 17 -32 0 -45 21 -26 42 9 10 21 18
27 18 6 0 32 11 58 24 33 17 50 20 57 13 17 -17 13 -35 -9 -42 -24 -8 -70 -72
-70 -98 0 -28 38 -95 60 -107 29 -16 108 -2 120 20 6 11 6 39 0 76 -6 33 -10
86 -10 120 0 54 3 63 30 89 41 40 94 47 144 21 21 -12 41 -28 44 -36z m-5278
23 c0 -10 -12 -38 -25 -63 -14 -25 -28 -53 -31 -62 -4 -10 -15 -18 -26 -18
-16 0 -19 5 -13 29 6 27 5 28 -42 35 -58 8 -61 5 -113 -102 l-40 -82 37 -41
36 -40 27 26 c33 31 40 31 40 -1 0 -37 -61 -145 -80 -141 -8 2 -13 10 -11 18
2 8 4 19 5 25 0 6 -39 54 -89 108 -49 54 -94 105 -99 113 -4 8 -30 38 -57 66
-50 53 -57 73 -38 108 10 19 18 20 243 13 211 -6 233 -5 239 9 8 22 37 22 37
0z m-612 -352 c3 -32 63 -123 117 -176 11 -11 25 -28 30 -39 13 -24 89 -55
138 -55 30 -1 37 3 37 18 0 21 23 45 33 34 10 -10 8 -71 -2 -77 -5 -3 -12 -23
-15 -43 -8 -43 -28 -93 -37 -93 -4 0 -12 7 -20 16 -10 12 -10 20 -1 34 16 26
5 50 -22 50 -13 0 -26 3 -30 7 -3 4 -21 12 -40 18 -29 10 -44 8 -117 -17 -46
-16 -104 -33 -129 -39 -29 -6 -53 -18 -67 -36 -19 -24 -23 -25 -29 -10 -6 17
-5 24 14 100 18 69 52 90 52 32 0 -19 4 -35 8 -35 5 0 41 11 80 25 39 14 78
25 87 25 25 0 17 25 -25 73 -22 25 -40 49 -40 54 0 6 -9 18 -20 28 -20 18 -21
18 -36 -3 -25 -36 -65 -23 -46 15 23 44 33 70 32 79 -1 5 1 19 5 32 11 35 39
24 43 -17z m5651 -167 c13 -29 1 -54 -25 -54 -8 0 -23 -5 -34 -12 -14 -9 -25
-9 -42 -1 -13 6 -32 14 -43 18 -15 5 -17 8 -6 15 8 4 25 4 39 -1 25 -10 42 -5
42 13 0 16 30 48 45 48 6 0 17 -12 24 -26z m482 -305 c16 -31 23 -56 26 -89 1
-19 3 -46 5 -60 4 -34 -27 -40 -36 -6 -8 31 -46 43 -90 28 -17 -6 -50 -13 -74
-17 -75 -12 -86 -14 -147 -27 -59 -14 -60 -14 -63 -51 -4 -51 -28 -48 -43 6
-6 23 -14 51 -18 62 -13 35 -7 79 11 83 12 2 17 -5 20 -25 l3 -28 70 4 c39 2
75 7 80 11 6 5 34 12 63 16 29 4 55 11 58 15 3 5 22 9 43 9 46 0 61 14 61 58
0 34 16 40 31 11z m57 -343 c0 -23 3 -53 7 -65 5 -17 1 -29 -16 -47 -12 -13
-28 -24 -34 -24 -7 0 -20 -9 -30 -20 -10 -11 -27 -22 -39 -26 -11 -3 -30 -14
-41 -24 -11 -10 -31 -25 -45 -32 -61 -34 -160 -101 -160 -109 0 -13 302 -10
317 3 7 6 13 23 13 38 0 28 28 50 35 27 9 -30 12 -165 4 -178 -8 -12 -12 -11
-24 5 -8 11 -15 26 -15 33 0 10 -46 13 -207 15 l-208 3 0 39 c0 41 3 44 95 93
17 9 96 60 179 115 14 10 41 25 59 35 17 9 32 23 32 31 0 11 -23 13 -122 11
-68 -1 -144 -6 -170 -11 -41 -8 -48 -13 -48 -33 0 -24 -22 -49 -33 -38 -4 3
-7 48 -7 100 0 73 3 93 14 93 15 0 26 -21 26 -50 0 -20 26 -34 43 -23 7 5 84
10 172 13 l160 5 1 28 c1 28 20 50 36 41 4 -3 7 -24 6 -48z m-5960 -38 c17
-17 15 -43 -4 -58 -12 -11 -18 -10 -31 3 -14 13 -14 21 -5 42 13 28 22 31 40
13z m-13 -182 c0 -51 -6 -57 -113 -102 -55 -22 -72 -54 -65 -119 3 -28 10 -53
15 -56 12 -8 86 -4 113 6 11 4 26 9 33 11 8 2 10 12 6 29 -4 18 -2 25 8 25 29
0 38 -24 38 -108 0 -74 -2 -83 -17 -80 -12 2 -19 14 -21 35 l-3 32 -107 -5
c-59 -3 -122 -10 -140 -16 -18 -5 -49 -7 -68 -3 -43 8 -63 -6 -56 -40 6 -33
-25 -46 -44 -20 -10 14 -14 59 -14 170 0 144 1 152 23 172 64 59 146 55 191
-9 l16 -22 22 21 c13 12 50 32 83 44 61 23 78 36 68 52 -8 13 6 39 20 34 7 -2
12 -22 12 -51z m5808 -358 c41 -16 101 -69 122 -108 8 -15 12 -54 10 -101 -1
-62 -6 -83 -25 -110 -13 -19 -30 -38 -37 -42 -18 -11 -16 -34 2 -41 8 -3 15
-13 15 -22 0 -13 -8 -15 -47 -10 -27 3 -58 6 -69 6 -29 1 -51 27 -36 42 6 6
22 12 35 13 36 4 63 21 86 54 17 23 21 44 21 107 0 74 -2 80 -32 111 -18 18
-40 33 -49 33 -10 0 -20 4 -23 9 -9 14 -100 24 -147 16 -31 -5 -53 -19 -85
-52 -42 -43 -44 -47 -44 -107 0 -67 7 -80 58 -115 32 -23 44 -63 21 -76 -16
-10 -86 41 -104 75 -23 44 -30 116 -15 145 7 14 11 28 7 31 -14 14 44 104 85
132 40 28 47 29 128 26 47 -1 102 -9 123 -16z m-5868 -138 c3 -5 17 -10 29
-10 48 0 126 -113 126 -182 0 -9 4 -19 9 -22 4 -3 11 -33 15 -67 4 -34 12 -69
18 -79 12 -19 5 -50 -11 -50 -6 0 -16 12 -23 28 -13 26 -16 27 -78 24 -36 -2
-73 -8 -82 -13 -9 -5 -43 -13 -75 -18 -32 -5 -65 -11 -73 -14 -8 -2 -28 -7
-45 -12 -44 -11 -45 -13 -33 -41 9 -18 9 -27 0 -36 -19 -19 -32 2 -42 63 -5
30 -13 72 -19 94 -6 22 -11 75 -11 118 0 65 4 84 24 115 34 53 86 92 125 92
11 0 23 5 26 10 3 6 30 10 60 10 30 0 57 -4 60 -10z m5514 -331 c11 -19 10
-24 -8 -42 -17 -17 -22 -18 -35 -7 -16 13 -22 51 -9 63 13 14 39 6 52 -14z
m-5346 -606 c56 -31 67 -44 67 -82 0 -26 -8 -46 -27 -67 -32 -35 -79 -58 -88
-44 -4 6 -14 10 -24 10 -31 0 -69 51 -69 92 0 41 20 70 64 93 36 19 39 19 77
-2z m5472 -7 c15 -8 36 -29 47 -46 19 -32 19 -33 -1 -76 -17 -36 -27 -45 -61
-54 -51 -14 -77 -6 -112 32 -38 39 -36 78 3 123 35 39 75 46 124 21z m-5026
-238 c72 -86 90 -132 71 -178 -16 -39 -49 -62 -93 -64 -25 -2 -32 -6 -30 -22
4 -37 -19 -85 -51 -105 -34 -21 -86 -25 -116 -9 -33 18 -163 189 -156 207 6
14 8 14 24 -1 10 -9 22 -16 26 -16 8 0 243 187 251 200 3 5 1 18 -4 28 -10 19
-6 32 10 32 4 0 35 -33 68 -72z m4487 48 c-6 -24 3 -32 272 -244 16 -12 16
-14 0 -26 -14 -10 -48 -7 -195 21 -98 18 -184 32 -191 30 -11 -2 173 -156 216
-181 8 -5 23 1 37 14 21 20 25 21 31 7 4 -10 -8 -33 -31 -62 -38 -46 -59 -51
-50 -12 4 18 -17 39 -127 124 -119 92 -134 101 -148 88 -42 -38 -53 -6 -14 39
l25 28 176 -32 c97 -17 182 -34 189 -37 40 -15 1 25 -102 107 l-116 92 -22
-21 c-46 -44 -49 -17 -4 45 35 49 64 60 54 20z m-4239 -333 c94 -44 99 -189
11 -284 -76 -82 -184 -111 -248 -67 -75 51 -89 146 -33 236 66 106 184 156
270 115z m4085 -109 c124 -63 173 -83 181 -75 16 16 27 13 27 -8 0 -24 -81
-94 -94 -81 -6 6 -3 17 8 29 22 25 17 33 -34 56 l-41 19 -61 -61 -60 -60 21
-42 c12 -22 24 -41 27 -41 2 0 15 7 28 16 18 11 26 12 31 3 5 -6 -11 -30 -39
-57 -35 -36 -48 -44 -57 -35 -9 9 -9 16 0 27 9 11 -4 46 -67 177 l-78 164 -26
-27 c-23 -26 -58 -38 -58 -21 0 13 94 103 108 103 7 0 90 -39 184 -86z m-323
-106 c17 -23 31 -48 31 -55 0 -18 -25 -16 -40 2 -7 9 -29 15 -52 15 -33 0 -47
-7 -79 -39 -31 -31 -39 -46 -39 -75 0 -72 69 -174 136 -202 91 -38 170 5 183
101 4 26 11 40 21 40 11 0 15 -11 13 -48 -4 -121 -126 -179 -250 -120 -48 22
-118 119 -133 183 -22 90 23 167 111 190 21 6 43 20 49 30 6 11 12 20 14 20 3
0 18 -19 35 -42z m-3486 -22 c36 -15 87 -69 87 -92 0 -11 6 -13 19 -9 11 3 22
2 25 -3 6 -9 -43 -84 -63 -96 -16 -10 -23 12 -11 34 24 44 -25 121 -87 139
-87 25 -213 -93 -213 -201 0 -95 52 -145 141 -135 51 6 65 1 48 -20 -15 -18
-112 -17 -149 2 -15 8 -37 29 -48 47 -48 80 -39 154 27 242 70 93 147 125 224
92z m278 -187 c43 -23 59 -37 59 -53 0 -12 -14 -99 -31 -195 -27 -143 -30
-177 -20 -193 23 -37 -3 -42 -56 -12 -55 32 -66 45 -52 59 6 6 17 5 30 -4 27
-16 35 -7 44 45 l6 42 -72 40 -73 40 -32 -26 c-39 -32 -41 -45 -11 -65 17 -12
19 -18 10 -27 -9 -10 -23 -6 -65 16 -55 30 -70 59 -30 59 22 0 270 210 271
230 1 6 -12 19 -29 28 -29 18 -41 47 -19 47 6 0 38 -14 70 -31z m2840 -65 c30
-26 91 -80 137 -122 51 -46 94 -77 114 -81 17 -4 33 -12 35 -18 4 -11 -94 -73
-116 -73 -19 0 -12 35 10 48 l21 14 -28 29 c-15 16 -35 29 -44 29 -10 0 -45
-16 -79 -37 -65 -38 -72 -53 -51 -107 8 -23 12 -25 35 -14 14 6 28 8 32 4 12
-12 -10 -36 -59 -64 -37 -21 -50 -24 -59 -15 -10 10 -9 16 3 30 15 17 14 31
-15 180 -18 89 -35 164 -38 168 -4 3 -23 -2 -43 -11 -37 -18 -52 -15 -43 9 6
15 104 76 123 77 5 0 35 -21 65 -46z m-2552 -82 c47 -22 48 -47 1 -47 l-35 0
-49 -122 c-47 -117 -49 -124 -37 -163 9 -32 20 -45 44 -55 40 -16 79 -10 106
19 18 19 111 228 111 251 0 5 -12 19 -27 31 -25 20 -26 23 -10 29 17 7 127
-31 127 -44 0 -4 15 -7 33 -7 45 -1 277 -64 277 -76 0 -6 -7 -34 -16 -65 -19
-65 -40 -66 -37 -1 l2 44 -74 18 c-41 10 -78 18 -82 18 -13 0 -46 -113 -36
-123 5 -5 23 -11 40 -15 26 -5 32 -3 38 15 3 12 13 21 21 21 31 0 3 -132 -29
-138 -12 -3 -17 4 -17 23 0 18 -7 28 -27 36 -14 5 -32 8 -38 5 -14 -5 -47
-128 -37 -138 14 -13 165 -49 172 -41 5 4 12 24 17 43 6 22 16 36 28 39 16 3
17 -2 12 -41 -9 -65 -24 -98 -44 -97 -10 0 -79 17 -153 37 -96 27 -135 41
-135 52 0 8 12 17 29 20 28 5 30 8 68 160 26 101 36 156 29 158 -6 2 -18 10
-25 18 -8 8 -26 14 -40 14 -22 0 -29 -11 -72 -122 -34 -89 -57 -132 -81 -155
-36 -34 -86 -49 -125 -38 -60 18 -107 101 -92 162 4 15 27 79 52 141 42 106
43 114 27 126 -25 18 -10 39 22 31 14 -3 42 -14 62 -23z m2191 -32 c0 -5 1
-13 1 -17 1 -4 -11 -15 -27 -24 -16 -9 -28 -23 -26 -30 6 -27 115 -289 120
-289 15 0 142 55 142 61 0 5 -9 32 -20 60 -15 36 -18 55 -10 63 15 15 28 -3
60 -78 20 -48 25 -68 16 -75 -19 -15 -258 -111 -277 -111 -29 0 -22 28 11 45
17 9 30 19 30 24 0 5 -27 73 -59 152 -37 89 -65 143 -72 141 -56 -14 -69 -14
-69 1 0 20 9 25 90 59 71 29 90 33 90 18z m-205 -81 c4 -5 -1 -19 -10 -29 -15
-17 -14 -25 14 -136 35 -131 38 -172 16 -214 -25 -47 -62 -70 -116 -70 -40 0
-55 5 -84 31 -36 32 -48 62 -92 234 -15 59 -22 71 -41 73 -58 9 4 55 84 64 38
4 46 -28 10 -38 -14 -3 -26 -13 -26 -22 0 -8 14 -69 31 -134 26 -99 37 -123
61 -143 37 -31 79 -32 113 -2 41 35 42 83 3 217 l-34 115 -34 0 c-54 0 -45 27
15 47 60 20 82 22 90 7z m-427 -109 c18 -11 40 -35 49 -55 15 -31 15 -37 0
-75 -15 -40 -15 -41 9 -57 30 -19 54 -63 54 -98 0 -35 -25 -82 -53 -97 -34
-19 -249 -48 -265 -35 -15 12 2 37 24 37 18 0 17 12 -1 157 -22 171 -23 173
-51 173 -17 0 -24 6 -24 20 0 14 9 20 33 24 17 3 57 10 87 15 85 14 102 12
138 -9z m-806 -298 c9 -9 -88 -157 -120 -185 -22 -20 -42 -16 -42 9 0 7 16 55
36 105 l37 91 41 -6 c23 -4 44 -10 48 -14z"/>
<path d="M4043 6869 c-56 -36 -73 -78 -73 -183 l0 -94 41 -40 c22 -22 48 -41
57 -41 9 -1 37 -4 60 -7 27 -4 48 -2 55 5 6 6 18 11 27 11 28 0 78 62 85 105
4 22 12 54 18 72 8 23 8 39 0 55 -6 13 -18 40 -27 61 -12 28 -27 43 -59 57
-57 27 -142 26 -184 -1z"/>
<path d="M2185 6398 c3 -24 8 -61 9 -83 4 -51 16 -85 28 -85 15 0 116 59 125
72 9 15 -136 138 -162 138 -4 0 -4 -19 0 -42z"/>
<path d="M3555 6093 c-49 -8 -128 -19 -175 -26 -47 -7 -89 -15 -95 -18 -5 -4
-30 -10 -55 -13 -50 -8 -136 -31 -190 -51 -36 -13 -160 -61 -195 -75 -59 -24
-238 -117 -303 -158 -233 -148 -461 -345 -585 -506 -33 -44 -68 -87 -76 -96
-9 -8 -34 -42 -56 -75 -22 -33 -43 -62 -46 -65 -3 -3 -28 -45 -55 -95 -27 -49
-57 -103 -66 -120 -9 -16 -20 -37 -23 -45 -4 -8 -12 -28 -19 -45 -8 -16 -20
-48 -29 -70 -8 -22 -25 -65 -37 -94 -30 -75 -54 -153 -51 -169 1 -8 -2 -19 -7
-25 -10 -13 -24 -58 -28 -92 -2 -11 -8 -40 -14 -65 -7 -25 -14 -67 -16 -95 -2
-27 -8 -81 -14 -120 -12 -73 -14 -395 -4 -500 3 -33 10 -65 15 -71 6 -7 9 -34
8 -60 -1 -27 4 -67 11 -89 7 -22 13 -52 14 -67 0 -14 4 -30 9 -34 4 -4 7 -18
7 -30 0 -13 4 -25 9 -28 4 -3 11 -25 15 -48 4 -23 12 -49 19 -57 7 -8 11 -17
10 -20 -4 -11 18 -80 27 -86 6 -3 10 -16 10 -29 0 -12 7 -31 15 -42 8 -10 15
-26 15 -35 0 -9 7 -22 15 -29 8 -7 15 -23 15 -35 0 -12 7 -28 15 -35 8 -7 15
-21 15 -31 0 -10 4 -20 9 -24 6 -3 29 -40 52 -83 46 -86 110 -185 122 -190 4
-2 7 -9 7 -16 0 -6 18 -30 40 -51 22 -21 40 -45 40 -53 0 -30 403 -412 435
-412 4 0 16 -12 27 -26 12 -14 30 -30 42 -35 11 -5 37 -19 57 -31 99 -63 188
-115 229 -134 110 -53 158 -74 166 -74 6 0 27 -9 49 -20 22 -11 45 -20 51 -20
6 0 25 -7 40 -15 16 -8 41 -15 56 -15 15 0 29 -4 33 -9 3 -6 27 -13 53 -16 26
-3 55 -11 65 -16 10 -5 46 -14 80 -19 34 -5 94 -14 132 -21 93 -14 706 -9 726
7 8 6 43 14 78 18 35 3 69 10 75 15 6 4 32 11 58 14 26 4 56 11 65 15 10 5 52
21 93 35 41 13 91 31 110 38 40 15 218 96 240 110 8 5 26 15 40 21 14 7 52 31
85 54 33 23 74 48 90 57 17 8 42 26 56 39 14 13 39 33 56 43 69 45 382 337
383 358 0 9 6 17 57 77 41 48 147 204 163 242 6 13 26 48 45 78 19 30 34 60
35 66 0 6 7 17 15 24 8 7 15 25 15 41 0 16 4 29 9 29 5 0 14 12 19 28 6 15 20
52 32 82 41 106 70 195 70 217 0 12 4 24 9 28 6 3 13 27 16 53 3 26 10 55 16
65 5 10 12 55 16 100 3 45 11 88 17 96 15 20 15 592 0 612 -6 8 -14 49 -17 92
-3 43 -10 84 -15 90 -5 7 -12 36 -15 66 -4 29 -10 58 -16 65 -5 6 -12 30 -16
53 -4 24 -10 45 -15 48 -4 3 -11 21 -15 41 -3 20 -13 52 -22 73 -9 20 -21 50
-28 66 -7 17 -26 59 -43 95 -16 36 -33 72 -36 80 -3 8 -17 33 -31 55 -14 22
-36 61 -49 86 -45 85 -215 319 -237 327 -5 2 -9 7 -9 12 0 17 -282 283 -345
325 -22 15 -51 37 -65 50 -14 12 -38 30 -55 39 -43 23 -65 38 -105 67 -46 34
-297 161 -328 165 -7 2 -28 9 -45 17 -74 35 -188 70 -286 88 -30 5 -59 13 -65
17 -6 4 -49 12 -96 19 -47 7 -115 16 -151 22 -114 17 -375 19 -474 4z m470
-75 c72 -7 135 -16 140 -19 6 -4 39 -10 75 -14 36 -4 70 -11 76 -16 6 -5 33
-12 60 -15 27 -4 71 -17 98 -30 27 -13 64 -27 83 -30 18 -3 36 -10 39 -15 3
-5 12 -9 21 -9 16 0 125 -48 173 -76 14 -8 41 -22 60 -31 19 -8 42 -19 50 -24
8 -5 26 -15 40 -21 14 -7 41 -25 61 -40 20 -15 40 -28 43 -28 4 0 28 -17 55
-37 26 -21 59 -45 71 -53 89 -58 297 -259 392 -380 37 -47 78 -98 91 -115 66
-81 199 -325 257 -470 18 -44 39 -95 46 -113 8 -18 14 -40 14 -50 0 -9 7 -30
15 -45 8 -15 19 -51 25 -80 6 -29 13 -61 15 -72 2 -11 7 -30 11 -42 l6 -23
-453 0 c-3343 -1 -4062 0 -4069 5 -6 3 -6 15 0 28 8 21 20 67 25 97 2 8 10 38
20 65 9 28 20 64 25 80 24 87 121 308 139 319 5 4 12 19 16 36 3 16 20 47 36
69 16 23 29 44 29 47 0 14 85 141 126 191 24 28 44 54 44 56 0 8 36 48 163
177 117 121 128 131 241 217 39 29 82 62 96 73 14 11 30 20 37 20 7 0 16 6 20
13 9 14 36 31 81 51 17 8 32 20 32 25 0 6 8 11 18 11 24 0 76 26 92 45 7 8 19
15 27 15 8 0 29 7 46 16 59 31 66 34 159 65 51 17 107 37 123 44 17 7 51 16
77 20 26 3 50 10 53 14 2 5 35 12 72 16 38 4 73 11 78 15 6 5 64 11 130 15 66
4 127 11 135 16 18 11 191 5 365 -13z m2039 -1964 c3 -26 6 -172 6 -325 l0
-279 -962 -2 -963 -3 -3 -1002 -2 -1003 -23 -5 c-96 -23 -404 -40 -472 -26
-27 6 -95 14 -150 18 l-100 8 -5 1005 -5 1005 -950 5 -950 5 -6 65 c-14 143
-5 445 16 548 l7 32 2278 0 2277 0 7 -46z m-2736 -1631 l2 -961 -42 5 c-24 3
-58 12 -77 19 -18 8 -46 14 -62 14 -15 0 -30 4 -33 9 -3 4 -27 14 -53 21 -27
7 -52 16 -58 20 -5 4 -23 10 -38 14 -30 7 -138 54 -197 85 -19 11 -65 35 -101
54 -169 90 -314 196 -468 344 -166 158 -307 331 -396 488 -16 28 -35 56 -42
63 -7 7 -13 22 -13 31 0 10 -8 29 -17 42 -23 31 -58 106 -98 209 -9 25 -22 56
-27 70 -6 14 -14 39 -18 55 -5 17 -14 46 -21 65 -6 19 -14 42 -17 50 -3 8 -7
24 -8 35 -7 48 -26 143 -36 176 -6 20 -8 41 -5 45 3 5 414 9 914 9 l908 -1 3
-961z m2725 940 c-8 -72 -17 -120 -25 -130 -5 -7 -7 -17 -3 -23 4 -6 2 -16 -3
-23 -5 -7 -12 -30 -16 -53 -3 -23 -13 -59 -23 -80 -9 -21 -16 -43 -14 -48 1
-6 -2 -19 -8 -30 -5 -12 -20 -46 -32 -76 -42 -106 -50 -125 -64 -153 -8 -16
-15 -33 -15 -38 0 -6 -11 -25 -25 -43 -14 -18 -25 -39 -25 -47 0 -8 -14 -32
-30 -53 -17 -22 -30 -43 -30 -48 0 -15 -136 -210 -152 -216 -4 -2 -8 -8 -8
-14 0 -28 -286 -311 -392 -387 -46 -33 -104 -76 -129 -96 -26 -19 -91 -58
-145 -86 -55 -29 -110 -60 -123 -71 -13 -10 -28 -18 -34 -18 -5 0 -34 -11 -62
-25 -29 -13 -88 -36 -131 -50 -44 -14 -93 -32 -111 -40 -17 -8 -45 -15 -61
-15 -17 0 -33 -4 -37 -9 -3 -6 -27 -13 -53 -16 -26 -3 -55 -10 -64 -16 -10 -5
-22 -9 -28 -9 -10 0 -16 1921 -6 1931 2 2 420 3 928 2 889 -1 923 -2 921 -20z"/>
<path d="M4085 5805 c-16 -8 -42 -14 -56 -15 -24 0 -109 -32 -215 -81 -49 -23
-63 -23 -90 -4 -34 23 -161 67 -196 66 -10 0 -20 4 -23 10 -4 5 -48 9 -99 9
-80 0 -95 -3 -111 -20 -10 -11 -24 -20 -32 -20 -7 0 -22 -9 -32 -19 -15 -15
-29 -19 -53 -15 -48 7 -71 -18 -137 -146 -19 -36 -37 -67 -40 -70 -3 -3 -15
-22 -26 -42 -41 -76 -136 -244 -160 -283 -39 -63 -65 -113 -65 -125 0 -5 8
-10 18 -10 10 0 22 -4 27 -9 8 -8 128 -26 227 -34 14 -1 30 -5 34 -9 4 -5 29
-8 56 -8 27 0 58 -4 68 -10 10 -5 51 -12 92 -16 40 -3 80 -8 88 -12 8 -3 26
-7 40 -8 14 -2 45 -8 70 -14 25 -7 58 -12 74 -13 22 -2 32 -9 38 -27 11 -34
50 -50 124 -50 35 0 65 -4 68 -8 8 -13 -50 -72 -71 -72 -29 0 -90 -25 -113
-45 -14 -13 -20 -31 -20 -61 0 -24 -5 -46 -10 -49 -26 -16 -50 -86 -50 -145 0
-98 38 -162 106 -175 52 -10 251 -10 289 0 36 9 85 53 85 75 0 9 3 20 7 24 18
18 21 117 3 141 -4 6 -10 22 -14 37 -5 23 0 33 34 65 39 37 50 66 30 78 -5 3
-35 8 -66 10 -31 1 -61 8 -67 14 -6 6 -20 11 -32 11 -20 0 -45 17 -45 30 0 4
19 15 43 26 23 10 46 24 50 31 4 7 18 13 30 13 12 0 44 18 71 40 27 22 59 42
72 45 13 3 36 8 52 12 15 3 38 8 52 10 14 1 59 7 100 13 41 5 84 10 95 10 11
0 29 4 40 9 19 8 83 18 285 43 117 14 127 37 60 131 -22 30 -40 60 -40 66 0 5
-6 14 -13 18 -12 8 -23 24 -109 158 -64 99 -62 95 -68 145 -4 39 -8 45 -27 43
-22 -3 -63 42 -92 98 -15 31 -55 52 -81 44 -11 -4 -31 8 -57 35 -23 22 -50 40
-61 40 -11 0 -25 7 -32 15 -16 19 -84 19 -125 0z m145 -106 c30 -44 60 -88 65
-97 6 -9 21 -33 35 -52 37 -50 53 -86 46 -99 -4 -6 -37 -26 -74 -46 -87 -46
-223 -148 -292 -220 -30 -31 -71 -68 -90 -81 -19 -13 -55 -40 -80 -59 -25 -19
-48 -35 -52 -35 -4 0 -8 32 -10 72 -2 46 -7 73 -15 76 -10 3 -13 -17 -13 -77
0 -81 -6 -95 -30 -66 -7 8 -16 15 -20 15 -4 0 -39 18 -77 40 -139 81 -275 120
-493 142 -58 5 -107 12 -109 13 -5 6 128 234 206 351 18 28 33 54 33 58 0 5
13 27 28 50 15 22 31 49 35 59 5 14 19 17 85 17 68 0 92 -5 182 -40 133 -52
158 -68 162 -99 4 -35 22 -32 28 4 4 23 16 34 60 56 30 16 62 28 70 29 8 0 31
10 50 22 29 19 116 39 200 47 8 0 39 -35 70 -80z m-1035 -18 c6 -10 -12 -44
-56 -108 -22 -32 -60 -91 -124 -195 -11 -17 -71 -111 -122 -190 -18 -27 -33
-61 -33 -74 l0 -23 188 -4 c238 -5 307 -18 512 -92 88 -32 104 -40 138 -63 30
-20 43 -23 84 -18 26 4 48 4 48 1 0 -3 -7 -17 -16 -30 -15 -23 -23 -25 -86
-25 -85 0 -110 11 -106 48 3 25 0 27 -67 39 -38 8 -77 14 -85 14 -16 1 -205
31 -340 54 -47 8 -125 20 -175 25 -174 21 -170 19 -137 72 9 14 58 97 107 183
50 86 111 193 138 238 26 45 51 92 57 103 8 21 47 54 62 54 4 0 9 -4 13 -9z
m1200 -11 c3 -5 1 -10 -4 -10 -6 0 -11 5 -11 10 0 6 2 10 4 10 3 0 8 -4 11
-10z m37 -50 c7 -16 16 -30 20 -30 5 0 8 -8 8 -17 0 -10 -11 -2 -30 23 -31 41
-36 54 -21 54 5 0 15 -13 23 -30z m-1287 -119 c-3 -6 -11 -11 -17 -11 -6 0 -6
6 2 15 14 17 26 13 15 -4z m-38 -66 c-4 -8 -11 -15 -17 -15 -7 0 -7 6 0 21 13
23 26 19 17 -6z m1493 -72 c0 -22 -20 -14 -30 11 -5 13 -14 27 -19 31 -6 3
-11 14 -11 23 0 19 59 -45 60 -65z m-1556 -29 c-22 -36 -45 -78 -53 -93 -8
-14 -18 -27 -23 -29 -4 -2 -8 -10 -8 -17 0 -11 30 -15 138 -18 130 -4 234 -20
312 -47 86 -31 118 -44 165 -68 60 -30 146 -85 141 -90 -2 -1 -57 22 -122 53
-152 72 -152 72 -199 85 -122 35 -181 43 -322 47 -84 2 -153 7 -153 10 0 16
151 246 157 239 3 -3 -12 -35 -33 -72z m1376 52 c0 -18 -95 -104 -137 -124
-43 -21 -55 -6 -20 23 15 13 27 29 27 35 0 17 -75 -29 -137 -82 -46 -41 -83
-60 -83 -43 0 7 101 100 113 104 12 3 68 38 121 74 24 17 32 18 49 8 16 -11
22 -10 35 3 20 20 32 20 32 2z m53 -56 c9 -11 17 -24 17 -29 0 -9 -92 -23 -99
-15 -5 5 49 64 59 64 3 0 13 -9 23 -20z m165 -20 c12 -16 22 -34 22 -40 0 -6
17 -32 38 -59 20 -27 45 -61 54 -77 10 -16 23 -37 30 -46 10 -14 10 -20 0 -30
-11 -11 -18 -7 -38 17 -13 17 -22 36 -19 43 3 7 -4 25 -14 40 -31 44 -111 172
-111 177 0 14 19 2 38 -25z m-38 -32 c0 -6 -7 -5 -15 2 -8 7 -15 17 -15 22 0
6 7 5 15 -2 8 -7 15 -17 15 -22z m-27 -50 c-2 -5 -42 -8 -89 -8 -47 0 -94 -5
-106 -11 -25 -13 -36 -4 -22 19 8 11 31 19 70 24 32 3 72 10 89 15 25 8 33 6
46 -11 10 -12 15 -24 12 -28z m52 12 c3 -5 1 -10 -4 -10 -6 0 -11 5 -11 10 0
6 2 10 4 10 3 0 8 -4 11 -10z m-335 -34 c-19 -17 -84 -41 -135 -50 -36 -7 -38
-6 -25 8 18 18 115 54 150 55 21 1 22 -1 10 -13z m366 -22 c23 -35 10 -42 -67
-35 -65 6 -174 0 -256 -14 -27 -5 -43 -4 -43 2 0 27 39 37 177 49 79 7 147 15
150 18 12 11 23 6 39 -20z m-440 -69 c-11 -8 -29 -15 -40 -15 -12 0 -33 -6
-48 -14 -43 -23 -91 -31 -86 -15 5 16 65 39 128 49 66 11 67 11 46 -5z m-936
-5 c0 -5 -7 -10 -16 -10 -8 0 -12 5 -9 10 3 6 10 10 16 10 5 0 9 -4 9 -10z
m740 1 c0 -5 -9 -11 -20 -14 -20 -5 -26 3 -13 16 9 10 33 8 33 -2z m650 -1 c0
-6 -31 -10 -72 -11 -77 0 -169 -11 -253 -28 -105 -22 -115 -23 -115 -7 0 16
49 36 89 36 14 0 33 5 41 10 20 13 310 13 310 0z m-1 -46 c53 -11 35 -21 -56
-32 -89 -11 -227 -32 -338 -51 -33 -6 -75 -11 -94 -11 -33 0 -33 1 -17 19 10
10 32 21 49 25 92 16 174 33 187 39 8 4 47 8 85 10 39 2 89 4 111 5 23 1 56
-1 73 -4z m-509 -19 c0 -9 -14 -16 -37 -20 -21 -4 -46 -9 -55 -12 -36 -9 -16
13 25 29 55 20 67 21 67 3z m-222 -27 c-3 -7 -13 -15 -24 -17 -16 -3 -17 -1
-5 13 16 19 34 21 29 4z m132 -53 c0 -9 -14 -16 -37 -20 -21 -4 -48 -10 -61
-16 -45 -18 -61 0 -19 22 50 27 117 35 117 14z m-160 -79 c0 -3 -4 -8 -10 -11
-5 -3 -10 -1 -10 4 0 6 5 11 10 11 6 0 10 -2 10 -4z m60 -6 c0 -5 -5 -10 -11
-10 -5 0 -7 5 -4 10 3 6 8 10 11 10 2 0 4 -4 4 -10z m-263 -194 c-8 -20 -47
-21 -47 -1 0 18 32 37 44 25 5 -5 6 -16 3 -24z m136 20 c25 -19 21 -36 -9 -36
-14 0 -34 -5 -45 -10 -24 -13 -25 1 -3 35 18 28 31 30 57 11z m64 -60 c-8 -21
-94 -56 -138 -56 -61 0 -159 38 -159 61 0 20 15 25 25 9 26 -42 188 -44 242
-3 27 20 40 16 30 -11z m73 5 c0 -20 -27 -48 -37 -37 -8 7 17 56 29 56 4 0 8
-8 8 -19z m-336 -60 c13 -21 160 -29 214 -12 30 9 32 8 27 -9 -5 -15 3 -23 40
-39 l45 -20 0 -61 c0 -65 -18 -113 -49 -129 -14 -8 -22 -7 -31 4 -10 12 -17
11 -48 -5 -43 -22 -145 -27 -207 -11 -22 5 -50 21 -62 35 -45 53 -38 172 13
194 14 7 22 17 19 23 -4 5 -4 16 -1 24 6 16 32 20 40 6z"/>
<path d="M2595 3272 c-11 -2 -26 -9 -32 -14 -18 -14 -16 -73 2 -88 17 -14 20
-40 5 -40 -6 0 -19 10 -30 23 -82 94 -89 100 -125 94 -34 -6 -142 -78 -159
-107 -18 -31 -126 -128 -195 -175 -71 -48 -85 -68 -56 -79 8 -3 118 -4 243 -2
196 4 223 2 201 -10 -37 -19 -61 -61 -63 -107 -1 -32 5 -44 32 -68 28 -26 32
-35 32 -82 0 -41 5 -58 20 -72 21 -19 27 -45 10 -45 -5 0 -12 -11 -16 -24 -6
-26 10 -64 35 -83 13 -9 14 -14 4 -24 -18 -18 -16 -49 3 -70 15 -17 15 -19 0
-34 -23 -23 -20 -55 8 -84 29 -32 41 -105 19 -122 -17 -15 -14 -81 4 -87 7 -2
18 9 23 24 15 38 24 22 21 -36 -3 -64 5 -90 30 -90 20 0 24 28 19 118 -2 38
16 43 30 7 12 -32 38 -32 46 0 7 27 -18 75 -38 75 -9 0 -9 3 0 12 7 7 12 27
12 45 0 21 9 41 25 57 29 29 32 58 9 81 -15 15 -15 17 0 34 19 21 21 52 4 69
-9 9 -7 17 10 35 23 24 32 97 12 97 -17 0 -11 26 10 45 15 14 20 31 20 72 0
48 3 57 30 80 26 21 30 32 30 72 0 48 -30 101 -57 101 -7 0 -14 3 -17 8 -2 4
102 6 233 4 205 -4 239 -2 250 12 16 19 7 36 -19 36 -10 0 -22 4 -25 10 -3 5
-30 25 -59 45 -42 28 -108 91 -174 168 -4 4 -25 21 -47 37 -22 16 -45 34 -52
40 -7 5 -32 11 -57 12 -51 1 -72 -12 -107 -69 -11 -18 -27 -33 -35 -33 -17 0
-17 7 -3 49 20 56 -11 94 -66 83z m38 -42 c7 -26 -16 -55 -37 -47 -23 9 -31
34 -16 52 18 21 47 19 53 -5z m-146 -60 c33 -42 84 -80 108 -80 4 0 5 11 3 25
-4 16 -1 25 8 25 10 0 13 -18 13 -67 -1 -75 -9 -101 -20 -63 -5 19 -7 15 -8
-20 -1 -49 11 -76 28 -66 6 4 11 37 11 80 l0 73 41 27 c22 15 50 43 61 62 11
19 28 39 38 44 20 11 80 3 80 -10 0 -5 16 -18 36 -30 19 -12 33 -25 30 -28 -3
-2 -13 1 -22 9 -14 11 -18 11 -30 -6 -13 -17 -15 -18 -33 -1 -18 16 -20 16
-46 -8 -15 -14 -36 -28 -46 -31 -11 -4 -19 -15 -19 -25 0 -10 -4 -21 -10 -25
-6 -4 -5 -14 1 -29 9 -18 7 -31 -6 -57 -21 -40 -32 -49 -62 -49 -18 0 -23 -6
-23 -25 0 -14 -4 -25 -10 -25 -5 0 -10 12 -10 26 0 20 -4 25 -16 20 -10 -4
-27 5 -46 24 -27 27 -30 36 -25 72 6 46 -8 85 -33 93 -10 3 -30 17 -45 31 -25
23 -29 24 -44 10 -22 -20 -31 -20 -31 -1 0 18 -21 20 -38 3 -7 -7 -12 -8 -12
-2 1 18 92 74 122 74 9 0 34 -22 55 -50z m-204 -75 c-17 -23 -42 -39 -50 -32
-7 8 39 57 53 57 12 0 12 -4 -3 -25z m49 -5 c-16 -28 -40 -46 -49 -36 -5 5 47
66 57 66 5 0 1 -13 -8 -30z m586 -1 c17 -21 20 -29 9 -29 -13 0 -36 21 -51 48
-14 25 20 10 42 -19z m52 6 c25 -27 21 -47 -5 -25 -21 17 -38 50 -27 50 5 0
19 -11 32 -25z m-600 -24 c-20 -29 -40 -41 -40 -24 0 10 53 64 58 58 2 -2 -6
-18 -18 -34z m508 2 c22 -34 -7 -30 -32 3 -17 24 -17 26 -1 22 10 -1 24 -13
33 -25z m-474 -17 c-9 -15 -19 -25 -21 -22 -3 2 3 16 13 30 9 15 19 25 21 22
3 -2 -3 -16 -13 -30z m443 -22 c-7 -7 -46 35 -47 51 0 5 12 -3 27 -17 15 -15
24 -30 20 -34z m193 -9 c20 -24 6 -28 -15 -5 -10 11 -13 20 -8 20 6 0 16 -7
23 -15z m-840 -4 c0 -5 -22 -24 -50 -42 -27 -18 -50 -36 -50 -40 0 -4 -7 -10
-16 -13 -29 -11 -10 14 46 58 56 46 70 53 70 37z m60 -1 c0 -15 -119 -110
-138 -110 -17 1 -9 10 84 87 41 34 54 39 54 23z m785 -45 c36 -33 53 -55 44
-55 -18 0 -129 89 -129 102 0 19 30 3 85 -47z m-721 -11 c-33 -40 -54 -55 -54
-38 0 15 72 94 81 88 5 -3 -7 -25 -27 -50z m646 17 c23 -21 40 -45 38 -52 -3
-10 -18 0 -46 28 -36 36 -52 63 -38 63 2 0 23 -17 46 -39z m-670 20 c0 -15
-84 -85 -88 -73 -2 6 14 27 35 46 38 36 53 43 53 27z m618 -25 c34 -36 38 -46
22 -46 -11 0 -69 60 -70 73 0 15 17 6 48 -27z m-549 -15 c-21 -29 -39 -40 -39
-24 0 10 53 64 58 59 2 -3 -6 -18 -19 -35z m520 -31 c0 -9 -12 0 -28 20 -16
19 -27 39 -24 43 7 12 52 -43 52 -63z m-109 34 c14 -36 13 -39 -10 -19 -21 19
-27 45 -10 45 6 0 15 -12 20 -26z m-350 11 c0 -11 -40 -48 -46 -43 -8 9 19 48
33 48 7 0 13 -2 13 -5z m25 -24 c-7 -23 -25 -29 -25 -8 0 14 21 39 28 33 2 -3
1 -14 -3 -25z m152 -3 c-3 -7 -5 -2 -5 12 0 14 2 19 5 13 2 -7 2 -19 0 -25z
m231 2 c17 -27 -3 -35 -22 -8 -9 12 -16 26 -16 30 0 13 25 -2 38 -22z m-346
-22 c-15 -15 -26 -4 -18 18 5 13 9 15 18 6 9 -9 9 -15 0 -24z m255 6 c-9 -9
-28 6 -21 18 4 6 10 6 17 -1 6 -6 8 -13 4 -17z m398 6 c3 -5 1 -10 -4 -10 -6
0 -11 5 -11 10 0 6 2 10 4 10 3 0 8 -4 11 -10z m-594 -47 c16 -10 29 -23 29
-31 0 -14 -18 -6 -60 27 -31 25 -9 28 31 4z m169 13 c0 -4 -78 -56 -85 -56
-18 0 1 23 33 39 38 19 52 24 52 17z m-192 -52 c35 -24 27 -37 -17 -31 -42 5
-71 -13 -71 -45 0 -24 49 -51 105 -59 136 -20 205 -55 205 -105 0 -29 -37 -74
-61 -74 -25 0 -24 12 1 28 28 17 26 58 -5 78 -14 9 -47 19 -73 21 -26 2 -56 8
-67 13 -11 5 -37 11 -58 15 -70 11 -97 66 -61 121 14 21 57 52 74 54 3 0 16
-7 28 -16z m220 -1 c63 -39 79 -89 40 -130 -14 -15 -33 -23 -55 -23 -42 0 -42
9 3 38 44 29 51 47 29 72 -14 16 -26 19 -56 14 -44 -7 -51 5 -16 29 28 20 23
20 55 0z m-128 -29 c0 -13 -4 -24 -10 -24 -5 0 -10 14 -10 31 0 17 4 28 10 24
6 -3 10 -17 10 -31z m-43 -81 c-9 -8 -100 22 -104 34 -3 8 13 13 49 15 49 3
53 1 56 -20 2 -13 1 -26 -1 -29z m163 41 c6 -10 -87 -57 -99 -50 -4 3 -6 18
-4 33 4 26 7 28 51 27 26 -1 49 -5 52 -10z m-210 -134 c0 -6 -6 -19 -12 -30
-10 -15 -10 -25 -2 -37 11 -18 95 -53 127 -53 11 0 32 -9 48 -21 39 -28 42
-84 4 -101 -35 -16 -43 -3 -16 25 36 40 8 69 -80 83 -21 4 -42 11 -45 15 -3 5
-12 9 -21 9 -29 0 -63 41 -63 75 0 17 3 35 7 38 10 11 53 8 53 -3z m50 -45 c0
-16 -6 -25 -15 -25 -21 0 -31 30 -14 41 23 14 29 11 29 -16z m84 19 c22 -8 20
-31 -4 -44 -23 -12 -22 -13 -24 23 -2 28 2 31 28 21z m-114 -124 c0 -5 -5 -10
-11 -10 -15 0 -6 -52 11 -61 8 -4 41 -18 73 -30 32 -13 63 -32 68 -42 14 -25
2 -57 -22 -57 -20 0 -26 15 -9 25 6 3 10 10 10 16 0 10 -87 51 -131 62 -37 9
-54 52 -34 83 15 24 45 33 45 14z m38 -38 c2 -7 -3 -12 -12 -12 -9 0 -16 7
-16 16 0 17 22 14 28 -4z m76 9 c7 -10 -22 -37 -30 -28 -9 8 3 37 15 37 5 0
12 -4 15 -9z m-104 -116 c-9 -10 -7 -20 5 -39 20 -29 10 -33 -23 -10 -26 18
-28 31 -6 55 19 21 41 15 24 -6z m85 -75 c3 -5 -3 -10 -14 -10 -12 0 -21 5
-21 10 0 6 6 10 14 10 8 0 18 -4 21 -10z m-89 -35 c-7 -27 22 -65 48 -65 23 0
61 -59 47 -73 -8 -8 -11 -5 -11 11 0 15 -9 26 -27 34 -79 34 -114 85 -75 107
24 15 25 14 18 -14z m144 -5 c7 -13 3 -23 -15 -40 -28 -26 -42 -22 -26 8 5 10
7 29 4 41 -4 17 -2 20 11 15 9 -4 21 -14 26 -24z m-115 -140 c3 -5 1 -10 -4
-10 -6 0 -11 5 -11 10 0 6 2 10 4 10 3 0 8 -4 11 -10z"/>
<path d="M2591 3064 c0 -11 3 -14 6 -6 3 7 2 16 -1 19 -3 4 -6 -2 -5 -13z"/>
<path d="M4999 3286 c-9 -18 -6 -34 12 -75 19 -45 24 -50 36 -38 7 7 16 29 19
48 5 26 1 40 -18 62 -29 33 -35 34 -49 3z m41 -25 c12 -23 13 -61 2 -61 -7 0
-32 57 -32 73 0 14 20 6 30 -12z"/>
<path d="M4873 3288 c-19 -27 -36 -68 -30 -74 10 -10 27 6 27 27 0 10 7 19 15
19 8 0 15 -6 15 -13 0 -7 20 -35 45 -60 27 -29 45 -57 45 -71 0 -19 4 -22 24
-19 18 4 29 -2 40 -20 20 -29 24 -93 8 -109 -7 -7 -12 -28 -12 -47 0 -19 -11
-54 -25 -78 -14 -23 -22 -43 -18 -43 16 1 53 73 68 133 21 84 35 117 49 117 7
0 12 -14 12 -32 0 -18 3 -69 8 -113 7 -76 6 -81 -16 -102 -70 -68 -79 -73 -98
-63 -11 6 -28 7 -42 1 -13 -5 -38 -6 -56 -4 -18 3 -38 0 -46 -6 -10 -8 -16 -9
-21 -1 -3 5 -18 10 -31 10 -17 0 -39 14 -65 41 -59 62 -35 71 39 15 59 -45 87
-57 80 -34 -2 6 -13 16 -23 22 -103 58 -127 77 -120 99 4 12 8 31 9 43 1 11 6
25 10 32 4 7 4 17 1 22 -4 6 -1 17 5 25 8 10 10 30 6 60 -7 40 -5 45 12 45 11
0 27 -11 36 -25 16 -24 16 -28 -2 -58 -17 -28 -17 -35 -6 -57 8 -14 14 -20 15
-15 0 6 3 21 6 35 11 62 15 212 4 206 -6 -4 -11 -23 -11 -42 0 -37 -6 -41 -34
-19 -31 24 -36 18 -36 -39 0 -48 -7 -83 -41 -192 -5 -17 -9 -40 -9 -51 0 -27
27 -80 45 -87 19 -7 19 -23 0 -42 -10 -10 -12 -21 -5 -37 5 -12 11 -38 15 -58
3 -21 11 -42 18 -47 7 -6 80 -12 171 -13 177 -2 172 -4 187 71 3 19 10 42 13
51 9 20 -19 50 -39 43 -24 -9 -18 5 21 49 33 39 35 46 29 87 -3 25 -7 68 -8
95 -2 28 -4 67 -5 88 -2 40 -20 49 -42 22 -15 -19 -30 -19 -30 -2 0 15 -51 63
-63 59 -4 -1 -11 8 -16 20 -5 13 -23 37 -41 53 -18 17 -39 45 -46 63 -15 34
-26 40 -41 20z m110 -578 c4 0 7 -10 8 -22 0 -16 2 -18 6 -8 9 23 26 30 41 17
11 -8 16 -7 23 5 6 11 19 15 37 14 25 -3 27 -6 24 -47 -4 -66 -19 -89 -59 -89
-27 0 -33 4 -34 23 l0 22 -9 -22 c-11 -27 -30 -31 -30 -6 0 15 -1 15 -18 0
-14 -13 -38 -17 -90 -17 -68 0 -72 1 -85 28 -14 27 -29 97 -22 104 3 2 143 1
208 -2z"/>
<path d="M5031 2654 c0 -11 3 -14 6 -6 3 7 2 16 -1 19 -3 4 -6 -2 -5 -13z"/>
<path d="M4990 3053 c0 -13 5 -23 10 -23 6 0 10 -6 10 -14 0 -8 5 -18 10 -21
18 -11 10 29 -10 55 l-20 25 0 -22z"/>
<path d="M4946 2986 c-9 -14 -16 -31 -16 -38 0 -7 9 2 21 21 23 39 20 54 -5
17z"/>
<path d="M4895 2909 c-11 -17 1 -21 15 -4 8 9 8 15 2 15 -6 0 -14 -5 -17 -11z"/>
<path d="M4812 2865 c0 -16 2 -22 5 -12 2 9 2 23 0 30 -3 6 -5 -1 -5 -18z"/>
<path d="M4871 2873 c-1 -6 -4 -20 -7 -30 -5 -17 -5 -17 6 0 6 10 9 23 6 30
-3 9 -5 9 -5 0z"/>
<path d="M4810 2528 c0 -30 21 -83 42 -105 12 -12 16 -23 10 -23 -18 0 -14
-36 9 -91 20 -47 21 -62 17 -245 -4 -162 -3 -197 9 -201 22 -8 27 4 9 22 -20
21 -5 55 25 55 27 0 35 -27 14 -50 -18 -20 -17 -20 28 -20 60 0 70 25 33 79
-24 34 -26 46 -26 133 0 61 5 108 15 131 8 19 12 37 9 39 -2 3 5 26 16 52 21
50 18 96 -6 96 -17 0 -18 -12 -2 -28 9 -9 9 -18 0 -37 -16 -36 -35 -32 -27 5
5 23 3 30 -9 30 -12 0 -16 -11 -16 -50 0 -33 4 -49 12 -47 6 1 14 -6 16 -15 2
-11 -2 -18 -12 -18 -13 0 -16 -21 -18 -132 -3 -125 -4 -133 -23 -133 -19 0
-20 8 -25 165 -4 137 -8 171 -24 203 -19 35 -19 38 -3 54 11 11 17 13 17 5 0
-7 10 -12 23 -12 17 0 19 2 8 9 -10 7 4 10 43 10 33 0 64 5 73 13 21 17 56 95
48 108 -12 19 -23 10 -29 -23 -12 -66 -28 -77 -115 -77 -73 0 -80 2 -95 26
-10 14 -18 37 -19 51 -2 27 -27 46 -27 21z m197 -632 c-4 -9 -10 -16 -16 -16
-11 0 -22 40 -14 53 9 14 36 -20 30 -37z"/>
<path d="M4966 2531 c5 -5 19 -12 32 -16 16 -5 22 -2 22 9 0 11 -10 16 -32 16
-19 0 -28 -4 -22 -9z"/>
<path d="M4973 2475 c-3 -9 -3 -18 0 -21 9 -9 27 6 27 22 0 19 -19 18 -27 -1z"/>
<path d="M960 5077 c0 -8 12 -30 28 -48 70 -84 95 -109 106 -109 14 0 66 102
66 129 0 16 -10 20 -67 24 -38 3 -83 9 -100 13 -26 5 -33 3 -33 -9z"/>
<path d="M651 3644 c-17 -22 -21 -41 -21 -100 0 -85 10 -93 89 -74 26 6 52 10
57 9 28 -5 32 3 27 69 -4 54 -10 72 -31 95 -35 37 -92 38 -121 1z"/>
<path d="M797 3178 c-57 -31 -97 -100 -95 -166 0 -29 5 -55 9 -58 5 -3 9 -14
9 -24 0 -10 4 -21 8 -24 11 -7 154 14 167 24 6 4 35 11 65 15 63 8 122 25 132
39 4 6 2 18 -3 27 -5 10 -9 29 -9 44 0 31 -39 95 -76 124 -37 29 -152 29 -207
-1z"/>
<path d="M1480 2024 c-25 -20 -47 -37 -49 -40 -6 -5 24 -47 59 -82 53 -54 130
-35 130 32 0 34 -61 126 -84 126 -6 0 -31 -16 -56 -36z"/>
<path d="M1333 1907 c-28 -23 -52 -46 -52 -51 -2 -19 81 -117 106 -127 52 -20
103 15 103 71 0 28 -10 51 -42 93 -24 31 -47 56 -53 56 -5 0 -33 -19 -62 -42z"/>
<path d="M1709 1766 c-111 -40 -184 -166 -143 -251 17 -36 57 -65 90 -65 69 0
164 66 195 134 37 83 19 155 -47 182 -40 17 -49 17 -95 0z"/>
<path d="M5731 1733 c25 -63 86 -183 94 -183 13 1 95 76 95 87 0 4 -39 28 -87
53 -106 55 -106 55 -102 43z"/>
<path d="M2318 1235 c-38 -36 -68 -67 -68 -69 0 -7 113 -67 117 -62 4 4 33
165 33 184 0 21 -13 13 -82 -53z"/>
<path d="M5164 1268 c3 -13 10 -50 16 -83 17 -92 13 -89 72 -56 29 17 53 34
53 39 0 10 -126 122 -138 122 -4 0 -5 -10 -3 -22z"/>
<path d="M4088 963 c-26 -4 -27 -6 -21 -56 9 -81 14 -85 72 -76 64 10 90 24
102 57 8 21 6 31 -9 51 -16 21 -28 26 -68 27 -27 1 -61 -1 -76 -3z"/>
<path d="M4116 783 l-29 -5 7 -66 c4 -37 10 -70 15 -75 4 -4 36 -4 72 0 51 5
69 12 91 34 35 34 35 63 3 94 -20 21 -33 25 -77 24 -29 -1 -66 -4 -82 -6z"/>
</g>
</svg>
