<?xml version="1.0" standalone="no"?>
<!DOCTYPE svg PUBLIC "-//W3C//DTD SVG 20010904//EN"
 "http://www.w3.org/TR/2001/REC-SVG-20010904/DTD/svg10.dtd">
<svg version="1.0" xmlns="http://www.w3.org/2000/svg"
 width="500.000000pt" height="500.000000pt" viewBox="0 0 500.000000 500.000000"
 preserveAspectRatio="xMidYMid meet">

<g transform="translate(0.000000,500.000000) scale(0.100000,-0.100000)"
fill="#000000" stroke="none">
<path d="M1425 4041 l0 -151 93 0 c85 0 96 2 127 26 34 26 65 86 65 127 0 36
-37 105 -67 124 -19 13 -53 18 -122 21 l-96 4 0 -151z m159 104 c64 -69 29
-235 -49 -235 l-25 0 0 130 0 130 25 0 c15 0 36 -11 49 -25z"/>
<path d="M1830 4113 c-8 -3 -19 -11 -23 -17 -6 -8 -10 -7 -14 2 -2 6 -19 12
-36 12 l-32 0 0 -110 0 -110 35 0 35 0 -3 89 c-3 75 -1 89 13 95 25 9 38 -3
32 -30 -4 -22 -1 -24 34 -24 34 0 39 3 39 24 0 12 -11 35 -25 50 -25 27 -29
28 -55 19z"/>
<path d="M1080 4027 c-56 -16 -98 -54 -107 -97 -6 -32 -5 -33 21 -28 83 16
158 -96 125 -186 -7 -20 -16 -36 -20 -36 -4 0 -10 -9 -14 -19 -3 -10 -29 -45
-59 -77 l-52 -57 -21 34 c-11 19 -39 68 -61 109 -21 41 -60 114 -86 162 -51
96 -56 123 -25 162 l20 26 -215 0 -216 0 32 -34 c18 -18 38 -40 43 -47 33 -46
148 -247 224 -393 l51 -98 0 -197 c0 -179 -2 -199 -20 -226 -11 -16 -20 -33
-20 -37 0 -10 165 -10 277 -1 l82 6 -14 28 c-12 22 -15 72 -15 221 l0 193 78
80 c164 171 220 254 229 342 5 41 1 58 -16 86 -45 74 -135 108 -221 84z"/>
<path d="M1921 3942 c-13 -25 8 -56 35 -50 29 5 27 62 -3 66 -13 2 -26 -4 -32
-16z"/>
<path d="M1665 3755 c-70 -16 -241 -20 -250 -5 -3 6 -13 10 -22 10 -13 0 -15
-9 -10 -53 6 -59 43 -130 86 -162 32 -25 122 -27 166 -5 28 15 30 19 27 64 -3
61 9 76 64 76 36 0 46 -5 63 -29 23 -32 27 -87 8 -112 -22 -28 -99 -64 -239
-110 -58 -20 -130 -62 -160 -96 -26 -28 -58 -111 -58 -148 0 -45 32 -117 67
-149 88 -84 233 -95 345 -26 26 17 51 30 53 30 3 0 10 -11 15 -25 l10 -25 139
0 139 0 -16 43 c-12 32 -17 103 -22 307 -6 256 -7 266 -30 309 -14 23 -36 51
-50 61 -67 46 -224 69 -325 45z m145 -459 c0 -142 0 -145 -27 -176 -44 -53
-93 -59 -136 -15 -26 25 -39 88 -28 136 9 41 57 118 96 152 20 18 73 46 88 47
4 0 7 -65 7 -144z"/>
<path d="M2585 3761 c-42 -7 -125 -49 -125 -63 0 -4 -4 -8 -10 -8 -5 0 -10 16
-10 35 l0 35 -144 0 -144 0 14 -52 c20 -78 20 -644 0 -693 l-15 -35 164 0 164
0 -19 43 c-18 38 -20 67 -20 295 0 274 2 289 56 331 38 30 80 27 115 -8 l29
-29 0 -265 c0 -205 -3 -275 -15 -313 -8 -27 -15 -50 -15 -51 0 -2 72 -3 161
-3 150 0 161 1 154 18 -23 56 -28 110 -29 332 -1 266 -4 284 -62 353 -51 61
-156 94 -249 78z"/>
<path d="M4160 3759 c-75 -16 -250 -23 -263 -10 -21 21 -37 12 -37 -22 0 -74
48 -165 103 -194 35 -18 106 -14 152 8 29 14 30 17 27 71 -4 54 -2 58 21 63
13 4 39 5 58 3 28 -2 37 -10 53 -41 25 -53 11 -105 -36 -129 -42 -22 -151 -64
-214 -83 -189 -58 -265 -259 -144 -384 87 -89 236 -102 352 -30 28 16 51 29
53 27 1 -2 8 -13 14 -25 11 -22 17 -23 146 -23 74 0 135 3 135 8 0 4 -5 23
-11 42 -7 19 -15 148 -19 285 -5 138 -13 268 -20 291 -25 87 -110 137 -250
147 -41 3 -95 1 -120 -4z m92 -650 c-29 -28 -45 -34 -89 -31 -32 3 -73 71 -73
122 0 74 72 184 144 220 l41 20 3 -152 3 -151 -29 -28z"/>
<path d="M3197 3737 c-205 -77 -295 -362 -187 -592 36 -76 70 -111 138 -143
77 -35 176 -29 256 16 l55 32 21 -70 c24 -79 19 -111 -18 -141 -33 -25 -57
-20 -134 29 -105 67 -128 75 -203 76 -111 1 -160 -36 -167 -124 -3 -40 -1 -45
17 -42 106 13 161 13 255 -3 128 -20 291 -23 345 -6 54 18 129 69 149 102 20
34 21 118 1 183 -22 72 -22 594 0 656 8 23 15 44 15 46 0 2 -109 4 -242 3
-223 -1 -248 -3 -301 -22z m251 -277 c2 -124 0 -244 -3 -267 -9 -61 -47 -103
-92 -103 -79 0 -114 89 -114 290 0 91 5 146 17 187 28 99 58 124 139 120 l50
-2 3 -225z"/>
<path d="M898 1890 c-169 -45 -300 -152 -372 -305 -107 -225 -63 -471 115
-649 62 -61 115 -94 214 -131 60 -22 86 -26 180 -27 94 0 120 3 177 25 204 78
333 225 374 427 47 231 -47 453 -248 586 -129 86 -293 114 -440 74z m90 -34
c-7 -8 -15 -12 -17 -11 -5 6 10 25 20 25 5 0 4 -6 -3 -14z m42 4 c0 -5 -2 -10
-4 -10 -3 0 -8 5 -11 10 -3 6 -1 10 4 10 6 0 11 -4 11 -10z m96 -5 c4 -8 3
-27 0 -41 -5 -20 -12 -25 -34 -22 -28 3 -40 32 -28 64 7 19 55 18 62 -1z m56
-14 c-5 -3 -12 -13 -15 -21 -3 -9 -6 -4 -6 12 -1 21 3 26 15 21 9 -3 11 -9 6
-12z m-322 -17 c0 -8 -5 -12 -10 -9 -6 4 -8 11 -5 16 9 14 15 11 15 -7z m404
-2 c3 -5 -1 -9 -9 -9 -8 0 -15 4 -15 9 0 4 4 8 9 8 6 0 12 -4 15 -8z m-249
-18 c9 3 13 2 10 -4 -10 -16 -42 -12 -49 6 -5 14 -4 15 9 4 8 -7 22 -10 30 -6z
m-105 -4 c0 -5 -2 -10 -4 -10 -3 0 -8 5 -11 10 -3 6 -1 10 4 10 6 0 11 -4 11
-10z m-76 -52 c-3 -4 -17 3 -31 17 -15 13 -31 21 -36 18 -6 -3 -7 -1 -3 5 5 8
17 5 41 -11 18 -12 31 -25 29 -29z m326 42 c0 -5 -5 -10 -11 -10 -5 0 -7 5 -4
10 3 6 8 10 11 10 2 0 4 -4 4 -10z m77 -12 c-1 -17 3 -23 16 -22 9 1 17 -2 17
-7 0 -12 -17 -11 -39 3 -15 9 -17 15 -8 30 15 23 17 23 14 -4z m-327 -4 c0 -2
-11 -4 -25 -4 -14 0 -25 4 -25 9 0 4 11 6 25 3 14 -2 25 -6 25 -8z m290 6 c0
-5 -8 -10 -17 -10 -15 0 -16 2 -3 10 19 12 20 12 20 0z m118 -7 c-1 -10 1 -23
5 -30 5 -7 1 -9 -13 -6 -27 7 -26 -14 1 -22 11 -4 18 -9 16 -12 -7 -7 -47 16
-47 27 0 5 7 15 15 24 8 8 15 19 15 25 0 6 3 11 6 11 3 0 4 -8 2 -17z m37 -11
c-3 -3 -11 0 -18 7 -9 10 -8 11 6 5 10 -3 15 -9 12 -12z m-570 -22 c-2 -31
-15 -37 -15 -7 0 15 4 27 8 27 5 0 8 -9 7 -20z m375 -3 c119 -41 214 -128 261
-237 43 -102 28 -312 -27 -367 -8 -8 -14 -18 -14 -23 0 -5 -25 -33 -55 -64
-237 -236 -635 -106 -696 228 -14 76 -3 164 31 233 11 23 20 46 20 50 0 4 19
29 43 55 117 129 286 178 437 125z m-431 -1 c9 -11 9 -16 -1 -22 -7 -4 -10 -4
-6 1 4 4 3 14 -3 22 -6 7 -9 13 -6 13 2 0 10 -6 16 -14z m-46 -17 c-4 -15 0
-27 13 -37 10 -8 13 -12 5 -10 -21 6 -35 33 -28 52 9 23 16 20 10 -5z m695 -3
c-21 -15 -24 -56 -5 -56 7 0 24 8 37 17 l25 16 -24 -26 c-22 -24 -27 -26 -45
-14 -11 8 -22 19 -24 25 -3 11 32 52 46 52 4 0 -1 -7 -10 -14z m-618 -16 c0
-5 -2 -10 -4 -10 -3 0 -8 5 -11 10 -3 6 -1 10 4 10 6 0 11 -4 11 -10z m-70
-61 c0 -5 -12 -8 -27 -8 -19 1 -22 3 -10 6 12 3 16 10 13 20 -5 13 -4 14 9 3
8 -7 15 -16 15 -21z m-62 -1 c-2 -6 6 -16 18 -22 11 -6 19 -17 16 -24 -2 -8
-11 -4 -24 13 -11 14 -27 25 -36 25 -15 0 -15 2 -2 10 20 13 31 12 28 -2z
m852 -7 c7 -14 7 -22 0 -26 -6 -4 -10 -3 -9 2 4 21 -2 32 -15 27 -8 -3 -12
-13 -9 -22 3 -13 2 -14 -4 -4 -5 7 -18 10 -29 7 -10 -4 -3 3 16 14 19 11 36
20 37 21 1 0 7 -9 13 -19z m37 -81 c1 -22 1 -22 -4 -2 -5 24 -18 29 -26 10 -3
-8 -6 -5 -6 5 -1 29 34 16 36 -13z m-889 14 c-20 -6 -31 -31 -18 -39 6 -4 10
-10 10 -15 0 -12 -38 19 -50 41 -7 13 -2 15 33 16 23 1 35 -1 25 -3z m826 -18
c-7 -19 16 -32 27 -15 6 9 9 10 9 2 0 -19 -20 -26 -35 -13 -17 14 -20 40 -5
40 5 0 7 -6 4 -14z m-886 -57 c7 -11 19 -18 27 -15 9 3 12 0 8 -10 -4 -10 -9
-12 -18 -4 -9 7 -21 7 -39 0 -17 -6 -26 -6 -26 0 0 6 9 10 21 10 12 0 19 5 16
13 -2 6 -10 11 -16 10 -6 -2 -11 2 -11 7 0 18 25 11 38 -11z m992 -59 c0 -5
-8 -10 -17 -10 -15 0 -16 2 -3 10 19 12 20 12 20 0z m-50 -15 c0 -2 -7 -5 -15
-9 -9 -3 -15 0 -15 9 0 9 6 12 15 9 8 -4 15 -7 15 -9z m50 -40 c0 -9 -54 -54
-65 -54 -5 0 3 10 20 22 l29 22 -29 6 c-29 6 -29 7 8 8 20 0 37 -1 37 -4z
m-997 -50 c-11 -8 -13 -14 -5 -19 7 -4 17 -4 22 -1 6 3 10 0 10 -7 0 -9 -14
-13 -40 -13 -34 0 -40 3 -40 21 0 27 4 31 40 31 25 0 27 -2 13 -12z m1004 -7
c-3 -8 -6 -5 -6 6 -1 11 2 17 5 13 3 -3 4 -12 1 -19z m-19 -40 c17 -17 15 -45
-4 -52 -14 -5 -15 -4 -4 9 18 21 5 45 -25 45 -17 0 -25 -6 -25 -17 0 -9 -3
-14 -6 -10 -4 3 -4 13 -1 22 7 18 48 20 65 3z m-1014 -43 c-5 -20 -2 -25 12
-25 29 0 45 15 38 33 -3 9 -4 17 -1 17 3 0 9 -12 15 -27 9 -26 7 -28 -20 -29
-17 -1 -34 -7 -38 -14 -10 -16 -22 32 -14 54 10 25 15 19 8 -9z m76 -140 c0
-8 -7 -15 -15 -15 -8 0 -15 7 -15 15 0 8 7 15 15 15 8 0 15 -7 15 -15z m900 0
c0 -8 -6 -15 -14 -15 -17 0 -28 14 -19 24 12 12 33 6 33 -9z m-805 -45 c3 -5
1 -10 -4 -10 -6 0 -11 5 -11 10 0 6 2 10 4 10 3 0 8 -4 11 -10z m701 -16 c18
-14 18 -14 -6 -3 -31 14 -36 19 -24 19 6 0 19 -7 30 -16z m-739 -19 c0 -8 -4
-12 -9 -9 -5 3 -6 10 -3 15 9 13 12 11 12 -6z m43 1 c-7 -7 -13 -7 -20 0 -6 6
-3 10 10 10 13 0 16 -4 10 -10z m674 -2 c5 -14 4 -15 -9 -4 -17 14 -19 20 -6
20 5 0 12 -7 15 -16z m-639 -14 c3 -5 0 -7 -8 -4 -9 3 -22 -4 -31 -18 -9 -12
-16 -18 -16 -14 0 12 31 46 41 46 4 0 11 -4 14 -10z m15 -45 c-7 -9 -15 -13
-19 -10 -3 3 1 10 9 15 21 14 24 12 10 -5z m38 -10 c-3 -3 -9 2 -12 12 -6 14
-5 15 5 6 7 -7 10 -15 7 -18z m560 0 c-3 -3 -9 2 -12 12 -6 14 -5 15 5 6 7 -7
10 -15 7 -18z m-538 -20 c-9 -10 -9 -15 -1 -15 6 0 11 -9 11 -20 0 -11 -4 -20
-10 -20 -5 0 -7 6 -4 14 3 8 0 17 -6 21 -8 5 -8 11 1 21 6 8 14 14 16 14 3 0
0 -7 -7 -15z m515 -4 c-3 -6 -11 -11 -16 -11 -5 0 -4 6 3 14 14 16 24 13 13
-3z m-151 -20 c-10 -10 -23 -16 -28 -13 -5 3 2 11 15 18 33 18 36 17 13 -5z
m76 4 c4 3 6 -4 3 -16 -4 -16 -8 -17 -14 -7 -5 7 -8 20 -8 28 0 10 2 11 6 2 2
-6 8 -10 13 -7z m-345 -3 c12 -9 16 -44 4 -36 -5 3 -9 11 -9 19 0 7 -6 16 -12
18 -7 3 -8 6 -3 6 6 0 15 -3 20 -7z m380 -2 c3 -5 1 -10 -4 -10 -6 0 -11 5
-11 10 0 6 2 10 4 10 3 0 8 -4 11 -10z m-444 -27 c-8 -15 -10 -15 -11 -2 0 17
10 32 18 25 2 -3 -1 -13 -7 -23z m25 -11 c-17 -16 -18 -16 -5 5 7 12 15 20 18
17 3 -2 -3 -12 -13 -22z m224 24 c0 -2 -7 -7 -16 -10 -8 -3 -12 -2 -9 4 6 10
25 14 25 6z m128 -14 c9 9 12 9 12 0 0 -7 -2 -12 -4 -12 -2 0 -11 -3 -19 -6
-9 -3 -16 3 -20 18 -5 21 -5 21 7 6 10 -13 15 -15 24 -6z m-70 -36 c12 -3 12
-4 -3 -3 -11 1 -20 9 -21 17 0 8 1 10 3 3 2 -6 12 -14 21 -17z m-229 8 c6 4
11 2 11 -4 0 -17 -33 -8 -37 10 -4 12 -3 13 5 1 5 -7 15 -10 21 -7z m44 -19
c-3 -9 -8 -14 -10 -11 -3 3 -2 9 2 15 9 16 15 13 8 -4z m142 5 c-3 -5 -16 -10
-28 -9 -20 1 -20 2 3 9 14 4 26 8 28 9 2 1 0 -3 -3 -9z"/>
<path d="M1072 1833 c2 -20 9 -28 23 -28 14 0 21 8 23 28 3 23 0 27 -23 27
-23 0 -26 -4 -23 -27z"/>
<path d="M930 1720 c-86 -21 -202 -116 -240 -194 -25 -53 -50 -146 -50 -188 0
-18 11 -68 25 -113 21 -70 32 -89 82 -142 64 -67 128 -108 186 -118 l37 -7 -2
168 -2 169 -3 -163 -3 -162 -28 7 c-114 28 -222 134 -258 252 -7 25 -14 47
-14 48 0 1 42 4 93 6 l92 3 -92 2 -93 2 0 66 c0 36 4 63 9 60 5 -4 7 3 4 14
-8 31 46 129 105 187 29 29 57 53 63 53 5 0 31 10 57 23 39 18 64 22 142 22
87 -1 100 -4 155 -32 136 -71 215 -193 215 -330 l0 -63 -160 0 -160 0 -2 -162
-3 -163 -55 -6 c-50 -5 -51 -6 -14 -7 58 -3 141 15 194 40 67 33 145 116 181
194 30 64 31 71 27 168 -4 87 -9 109 -35 161 -38 75 -100 137 -178 177 -52 27
-72 31 -150 34 -49 2 -106 -1 -125 -6z m480 -445 c0 -3 -11 -32 -24 -64 -29
-72 -61 -120 -104 -156 -32 -27 -33 -27 -48 -9 -14 18 -15 18 -5 -2 9 -18 5
-24 -27 -41 -20 -11 -49 -23 -64 -27 l-28 -6 0 155 0 155 150 0 c83 0 150 -2
150 -5z"/>
<path d="M1228 1133 c-10 -2 -18 -9 -18 -14 0 -6 8 -5 20 1 11 6 20 13 20 15
0 3 -1 4 -2 4 -2 -1 -11 -3 -20 -6z"/>
<path d="M1095 1682 c17 -12 55 -82 43 -79 -6 1 -13 -4 -15 -10 -3 -7 0 -13 7
-13 6 0 8 -4 5 -10 -3 -5 0 -10 7 -11 7 -1 2 -5 -12 -10 -20 -7 -17 -8 15 -4
22 2 41 9 43 15 2 5 9 8 15 4 7 -3 3 3 -9 13 -11 10 -19 24 -17 30 5 13 -62
83 -80 83 -8 0 -8 -3 -2 -8z"/>
<path d="M938 1673 c-11 -3 -15 -10 -11 -20 4 -10 2 -14 -4 -10 -11 7 -25 -15
-27 -41 -1 -7 -8 -17 -16 -22 -11 -7 -4 -10 25 -10 32 1 37 3 22 11 -17 10
-17 12 0 42 10 18 22 35 28 39 13 9 4 15 -17 11z"/>
<path d="M1100 1610 c-9 -6 -10 -10 -3 -10 6 0 15 5 18 10 8 12 4 12 -15 0z"/>
<path d="M1057 1568 c-30 -18 -40 -20 -46 -9 -6 9 -11 10 -15 2 -4 -6 -1 -11
6 -11 10 0 11 -2 0 -8 -9 -6 -7 -11 10 -19 28 -12 73 1 62 18 -4 7 -3 9 3 6
12 -8 46 27 36 36 -9 10 -14 9 -56 -15z m-20 -34 c-3 -3 -12 -4 -19 -1 -8 3
-5 6 6 6 11 1 17 -2 13 -5z"/>
<path d="M960 1570 c-13 -8 -12 -10 3 -10 9 0 17 5 17 10 0 12 -1 12 -20 0z"/>
<path d="M905 1550 c11 -5 31 -8 45 -8 l25 0 -25 8 c-14 4 -34 8 -45 8 l-20 1
20 -9z"/>
<path d="M1000 1489 c-11 -19 -10 -20 9 -9 22 11 29 30 11 30 -5 0 -14 -9 -20
-21z"/>
<path d="M1040 1501 c0 -5 6 -14 14 -20 10 -9 15 -8 19 3 3 8 -1 17 -9 20 -21
8 -24 8 -24 -3z"/>
<path d="M997 1439 c7 -7 15 -10 18 -7 3 3 -2 9 -12 12 -14 6 -15 5 -6 -5z"/>
<path d="M1048 1433 c7 -3 16 -2 19 1 4 3 -2 6 -13 5 -11 0 -14 -3 -6 -6z"/>
<path d="M738 1413 c18 -2 45 -2 60 0 15 2 0 4 -33 4 -33 0 -45 -2 -27 -4z"/>
<path d="M848 1413 c7 -3 16 -2 19 1 4 3 -2 6 -13 5 -11 0 -14 -3 -6 -6z"/>
<path d="M918 1413 c6 -2 18 -2 25 0 6 3 1 5 -13 5 -14 0 -19 -2 -12 -5z"/>
<path d="M1008 1413 c7 -3 16 -2 19 1 4 3 -2 6 -13 5 -11 0 -14 -3 -6 -6z"/>
<path d="M1108 1413 c7 -3 16 -2 19 1 4 3 -2 6 -13 5 -11 0 -14 -3 -6 -6z"/>
<path d="M1173 1413 c20 -2 54 -2 75 0 20 2 3 4 -38 4 -41 0 -58 -2 -37 -4z"/>
<path d="M1303 1413 c9 -2 25 -2 35 0 9 3 1 5 -18 5 -19 0 -27 -2 -17 -5z"/>
<path d="M873 1283 c15 -2 39 -2 55 0 15 2 2 4 -28 4 -30 0 -43 -2 -27 -4z"/>
<path d="M827 1263 c-10 -10 -8 -25 2 -19 5 4 12 0 14 -6 3 -7 6 -3 6 10 1 22
-9 29 -22 15z"/>
<path d="M785 1250 c-3 -5 -3 -10 2 -11 4 0 -2 -4 -14 -9 -13 -5 -23 -14 -23
-20 0 -13 26 -13 52 1 17 9 20 9 15 -3 -4 -11 2 -14 21 -13 15 1 44 3 65 3 45
2 46 9 4 42 -21 16 -27 18 -17 6 14 -18 13 -18 -8 -12 -16 6 -22 3 -22 -8 0
-23 -18 -19 -45 9 -14 16 -26 22 -30 15z m130 -30 c3 -5 -1 -10 -10 -10 -9 0
-13 5 -10 10 3 6 8 10 10 10 2 0 7 -4 10 -10z"/>
<path d="M840 1170 c-18 -18 -19 -24 -8 -38 10 -12 10 -14 0 -8 -9 5 -11 1 -8
-16 3 -13 5 -29 5 -35 1 -7 8 -13 17 -13 12 0 14 8 10 35 -3 19 -2 35 3 35 12
0 21 49 10 56 -5 2 -18 -5 -29 -16z"/>
<path d="M580 1550 c0 -5 5 -10 10 -10 6 0 10 5 10 10 0 6 -4 10 -10 10 -5 0
-10 -4 -10 -10z"/>
<path d="M520 1315 c0 -8 7 -15 15 -15 9 0 12 6 9 15 -4 8 -10 15 -15 15 -5 0
-9 -7 -9 -15z"/>
<path d="M4065 1886 c-18 -27 -11 -53 16 -61 40 -13 63 31 35 68 -18 23 -33
21 -51 -7z m43 -24 c2 -14 -2 -22 -12 -22 -19 0 -29 17 -22 36 8 22 30 12 34
-14z"/>
<path d="M3985 1894 c-6 -2 -9 -20 -7 -40 4 -31 7 -35 31 -32 23 3 26 8 26 38
0 28 -4 35 -20 37 -11 1 -25 0 -30 -3z m32 -20 c-3 -3 -12 -4 -19 -1 -8 3 -5
6 6 6 11 1 17 -2 13 -5z m2 -35 c-16 -10 -23 -4 -14 10 3 6 11 8 17 5 6 -4 5
-9 -3 -15z"/>
<path d="M4140 1891 c0 -6 4 -11 10 -11 5 0 7 -13 4 -30 -4 -19 -2 -30 5 -30
6 0 11 11 11 25 0 13 8 29 18 34 15 9 15 10 0 11 -9 0 -23 3 -32 6 -9 3 -16 1
-16 -5z"/>
<path d="M4201 1854 c-7 -20 -10 -38 -7 -41 9 -9 16 0 26 36 12 43 -4 48 -19
5z"/>
<path d="M3903 1874 c-16 -7 -17 -36 -1 -52 9 -9 8 -12 -5 -12 -11 0 -17 8
-17 25 0 28 -23 33 -51 12 -14 -10 -14 -16 -2 -44 14 -36 39 -46 28 -13 -7 23
-2 25 25 8 15 -10 22 -10 28 -2 4 7 18 14 32 15 20 3 25 10 25 34 0 25 -4 30
-25 32 -14 1 -31 -1 -37 -3z m42 -29 c0 -10 -5 -20 -11 -22 -13 -4 -27 24 -18
38 9 15 29 4 29 -16z m-85 -15 c0 -5 -4 -10 -10 -10 -5 0 -10 5 -10 10 0 6 5
10 10 10 6 0 10 -4 10 -10z"/>
<path d="M2025 1859 c-27 -4 -101 -15 -164 -23 -63 -9 -116 -17 -117 -19 -2
-2 0 -13 3 -26 6 -23 7 -23 20 -6 7 11 13 13 13 6 0 -7 4 -10 9 -7 5 4 5 -10
0 -31 -4 -21 -6 -39 -5 -41 2 -2 16 0 30 4 20 5 25 11 20 23 -4 9 -9 30 -12
46 -3 25 -2 28 9 18 18 -17 29 -16 29 3 0 8 5 12 11 8 6 -3 9 -24 7 -46 l-4
-40 53 4 c53 5 79 17 56 25 -18 6 -17 73 1 73 15 0 29 -52 19 -76 -5 -14 0
-15 38 -9 24 4 47 9 52 12 13 8 7 33 -8 33 -8 0 -15 -4 -15 -10 0 -5 -7 -10
-15 -10 -8 0 -15 4 -15 9 0 5 7 11 15 15 22 8 18 26 -5 26 -11 0 -20 5 -20 11
0 7 11 9 30 6 25 -6 30 -3 30 13 0 11 -3 19 -7 19 -5 -1 -30 -5 -58 -10z m-90
-49 c-3 -5 -10 -10 -16 -10 -5 0 -9 5 -9 10 0 6 7 10 16 10 8 0 12 -4 9 -10z
m5 -40 c0 -5 -7 -10 -15 -10 -8 0 -15 5 -15 10 0 6 7 10 15 10 8 0 15 -4 15
-10z"/>
<path d="M4231 1848 c-5 -13 -5 -31 1 -40 10 -21 48 -24 48 -4 0 9 -7 12 -20
9 -24 -6 -28 18 -5 37 12 10 16 9 21 -4 3 -9 10 -16 15 -16 6 0 5 9 -1 20 -14
27 -49 26 -59 -2z"/>
<path d="M4314 1825 c-4 -8 -1 -22 6 -30 7 -8 9 -15 5 -15 -4 0 -14 8 -21 18
-12 16 -13 15 -14 -5 0 -13 8 -24 21 -28 30 -10 44 8 28 36 -11 22 -11 23 4
10 15 -11 17 -11 17 2 0 8 -7 18 -16 21 -22 8 -24 8 -30 -9z"/>
<path d="M4350 1763 c-42 -43 -102 -113 -134 -156 -43 -57 -62 -75 -71 -67
-15 13 -8 61 12 77 20 15 9 45 -12 37 -21 -9 -55 28 -55 60 0 32 -16 42 -35
22 -11 -11 -26 -13 -48 -9 -39 7 -38 6 -40 32 -1 11 -7 21 -15 21 -7 0 -10 -5
-6 -12 5 -7 2 -9 -8 -6 -11 5 -14 0 -10 -18 6 -30 -33 -65 -64 -58 -29 7 -40
-13 -19 -36 11 -12 13 -20 6 -25 -6 -3 -11 -14 -11 -24 0 -11 -9 -21 -22 -24
-18 -5 -19 -8 -8 -21 7 -9 18 -16 26 -16 7 0 19 -10 25 -22 9 -18 8 -24 -6
-34 -23 -17 -9 -37 22 -29 36 9 83 -15 83 -42 0 -29 22 -30 35 -1 19 43 85 40
85 -3 0 -21 -8 -23 -29 -10 -23 15 -43 -18 -26 -42 11 -16 10 -26 -7 -66 -10
-25 -26 -50 -34 -54 -8 -5 -13 -16 -10 -25 3 -9 2 -23 -3 -30 -6 -10 -16 -2
-40 29 -17 24 -51 56 -76 71 l-45 28 -38 -19 c-43 -22 -92 -81 -67 -81 8 0 15
-4 15 -9 0 -5 11 -11 23 -15 27 -6 95 -90 155 -190 23 -39 42 -66 42 -61 0 4
11 -4 25 -19 13 -14 32 -26 42 -26 12 1 9 5 -10 13 l-28 12 56 55 c30 30 55
62 55 71 0 10 7 24 15 32 13 13 19 13 49 -1 26 -12 36 -23 41 -49 8 -43 41
-46 50 -4 5 24 14 31 48 39 36 10 44 9 60 -8 32 -35 52 -21 38 27 -13 44 8 66
57 62 35 -4 38 -2 34 19 -2 12 -13 27 -23 33 -14 7 -19 21 -19 54 0 25 5 45
10 45 19 0 37 24 32 43 -4 14 -11 17 -29 12 -36 -9 -78 45 -74 96 2 34 0 39
-18 39 -12 0 -26 -9 -33 -20 -13 -20 -43 -27 -51 -12 -10 16 125 242 144 242
5 0 16 -11 25 -25 9 -14 23 -25 30 -25 8 0 14 -10 14 -22 l0 -22 16 22 c8 12
25 22 37 22 20 1 21 2 5 14 -10 7 -18 19 -18 26 0 9 -5 8 -18 -3 -24 -22 -35
-21 -57 3 -20 22 -8 28 14 8 11 -11 13 -9 8 10 -3 12 -1 22 4 22 5 0 9 -5 9
-11 0 -5 5 -7 11 -4 16 11 -20 45 -39 37 -11 -4 -8 5 11 27 32 39 33 47 8 61
-34 17 -43 12 -121 -67z m-296 -118 c59 -55 19 -155 -64 -155 -51 0 -85 37
-85 92 0 78 91 117 149 63z m86 -140 c0 -3 -7 -17 -17 -31 -12 -19 -18 -22
-24 -12 -5 7 -1 20 8 30 15 17 33 24 33 13z m164 -156 c59 -46 71 -112 31
-171 -43 -64 -140 -74 -189 -19 -16 18 -16 22 12 88 54 123 54 123 88 123 17
0 43 -9 58 -21z"/>
<path d="M3998 1783 c6 -2 18 -2 25 0 6 3 1 5 -13 5 -14 0 -19 -2 -12 -5z"/>
<path d="M4128 1783 c6 -2 18 -2 25 0 6 3 1 5 -13 5 -14 0 -19 -2 -12 -5z"/>
<path d="M3692 1754 l-22 -15 22 -30 c25 -34 42 -38 33 -9 -6 18 -3 20 19 14
16 -4 26 -2 26 5 0 6 -6 11 -14 11 -7 0 -16 9 -19 20 -6 24 -15 25 -45 4z m28
-14 c0 -5 -8 -10 -17 -10 -15 0 -16 2 -3 10 19 12 20 12 20 0z"/>
<path d="M3874 1744 c-18 -14 -18 -15 4 -4 12 6 22 13 22 15 0 8 -5 6 -26 -11z"/>
<path d="M3632 1690 c-18 -30 1 -62 35 -58 38 4 52 32 29 57 -24 27 -48 27
-64 1z m46 -13 c17 -21 0 -38 -22 -22 -10 8 -15 18 -11 24 8 15 20 14 33 -2z"/>
<path d="M3755 1658 l-40 -43 45 40 c25 22 47 41 49 43 2 1 0 2 -5 2 -6 0 -28
-19 -49 -42z"/>
<path d="M4410 1635 c13 -14 25 -25 27 -25 9 0 -33 49 -41 50 -5 0 1 -11 14
-25z"/>
<path d="M3590 1631 c-14 -27 -14 -29 20 -46 36 -19 46 -19 31 -1 -6 7 -9 21
-5 30 3 9 1 16 -5 16 -6 0 -11 -4 -11 -10 0 -5 -4 -10 -9 -10 -5 0 -7 9 -4 20
7 25 -3 26 -17 1z"/>
<path d="M4512 1608 c-6 -6 -12 -17 -12 -24 0 -16 29 -39 37 -30 4 4 1 11 -7
16 -11 7 -11 11 -1 24 18 22 31 20 31 -4 0 -11 5 -20 11 -20 6 0 9 10 7 23 -3
25 -45 36 -66 15z"/>
<path d="M4466 1557 c3 -10 9 -15 12 -12 3 3 0 11 -7 18 -10 9 -11 8 -5 -6z"/>
<path d="M4553 1544 c-28 -12 -31 -17 -24 -36 4 -12 14 -24 20 -26 10 -3 10 0
2 17 -14 26 3 29 18 4 9 -16 10 -15 11 6 0 24 0 24 15 5 12 -16 14 -17 15 -2
0 21 -10 48 -19 47 -3 0 -20 -7 -38 -15z"/>
<path d="M3193 1523 c-24 -2 -43 -9 -43 -15 0 -5 7 -7 16 -4 15 6 15 4 3 -10
-8 -10 -13 -19 -11 -21 8 -11 -1 -13 -14 -2 -8 7 -13 21 -10 32 3 13 0 17 -10
13 -8 -3 -55 -11 -105 -18 -83 -11 -89 -13 -89 -34 0 -17 4 -22 15 -18 8 4 15
10 15 16 0 5 4 7 9 3 6 -3 6 -18 0 -38 -5 -17 -9 -32 -9 -32 0 -1 14 -2 30 -3
29 -2 43 19 21 32 -11 7 -21 56 -10 56 4 0 11 -5 15 -11 4 -8 9 -7 15 2 10 16
14 12 23 -23 4 -17 2 -28 -4 -28 -5 0 -10 -4 -10 -10 0 -5 11 -10 24 -10 14 0
28 5 31 10 3 6 1 10 -4 10 -6 0 -11 16 -11 36 0 45 17 41 45 -9 23 -41 37 -37
51 12 5 19 14 36 20 38 14 5 26 -39 17 -63 -5 -15 -2 -16 27 -11 18 4 41 7 50
7 14 0 17 5 13 21 -6 21 -7 21 -19 4 -7 -10 -20 -15 -29 -12 -19 8 -20 27 0
27 8 0 15 5 15 10 0 6 -7 10 -15 10 -8 0 -15 5 -15 11 0 7 10 9 25 5 18 -5 25
-2 25 9 0 15 -6 16 -97 8z"/>
<path d="M4490 1505 c0 -5 5 -17 10 -25 5 -8 10 -10 10 -5 0 6 -5 17 -10 25
-5 8 -10 11 -10 5z"/>
<path d="M3526 1474 c-12 -30 -6 -43 22 -46 19 -2 28 -9 30 -25 2 -13 -1 -23
-7 -23 -5 0 -11 10 -14 23 -4 22 -4 22 -15 -3 l-11 -25 -1 25 c-1 23 -2 23
-10 5 -16 -38 -11 -45 29 -45 38 0 39 1 43 40 2 28 0 40 -9 40 -20 0 -15 18 7
25 32 10 23 20 -19 22 -28 2 -41 -2 -45 -13z m34 -9 c0 -8 -4 -15 -10 -15 -5
0 -10 7 -10 15 0 8 5 15 10 15 6 0 10 -7 10 -15z"/>
<path d="M4582 1479 c-18 -3 -35 -9 -37 -11 -8 -7 7 -48 17 -48 6 0 8 9 5 20
-4 16 0 20 18 20 13 0 27 5 30 11 10 15 4 17 -33 8z"/>
<path d="M2850 1470 c-10 -6 -11 -10 -2 -10 16 0 15 -41 -2 -65 -12 -17 -13
-17 -20 9 -4 15 -4 36 -1 47 5 14 2 19 -12 19 -25 0 -39 -11 -47 -38 -6 -19
-10 -21 -22 -11 -8 6 -14 18 -14 25 0 16 -5 16 -37 8 -13 -4 -23 -11 -23 -16
0 -5 5 -6 10 -3 6 4 10 -8 10 -29 0 -19 -4 -37 -9 -41 -13 -8 -26 16 -22 43 3
27 -17 36 -64 28 -33 -6 -34 -8 -22 -29 14 -24 15 -46 4 -64 -6 -9 -1 -13 17
-13 30 0 42 16 26 35 -8 10 -9 15 -2 15 6 0 14 -9 17 -20 7 -22 30 -25 69 -10
22 8 24 13 16 39 -7 24 -5 29 6 24 8 -3 11 -9 8 -14 -6 -11 13 -39 26 -39 5 0
12 17 18 38 l10 37 1 -39 c1 -34 3 -38 24 -33 12 3 48 9 79 12 53 7 56 9 45
26 -14 23 -32 25 -23 4 4 -11 -2 -15 -22 -15 l-27 1 27 20 c24 17 26 24 17 41
-8 15 -8 19 0 14 6 -4 11 -2 11 3 0 14 -50 14 -70 1z m-220 -60 c0 -5 -4 -10
-10 -10 -5 0 -10 5 -10 10 0 6 5 10 10 10 6 0 10 -4 10 -10z"/>
<path d="M4511 1444 c0 -11 3 -14 6 -6 3 7 2 16 -1 19 -3 4 -6 -2 -5 -13z"/>
<path d="M3631 1434 c0 -11 3 -14 6 -6 3 7 2 16 -1 19 -3 4 -6 -2 -5 -13z"/>
<path d="M2393 1412 c-28 -2 -43 -8 -43 -17 0 -7 6 -15 13 -17 8 -2 11 -13 7
-30 l-5 -26 -35 30 c-28 24 -30 29 -12 23 16 -5 22 -2 22 9 0 10 -8 14 -27 12
-16 -2 -30 -5 -33 -6 -3 -1 -15 -1 -28 0 -20 1 -22 -2 -17 -27 l6 -28 -19 23
c-11 12 -30 22 -42 22 -18 0 -20 -4 -13 -22 4 -13 7 -37 7 -54 0 -25 3 -30 18
-26 21 5 21 4 8 36 -13 35 4 33 30 -4 28 -39 44 -29 36 21 -4 24 -2 39 4 39 5
0 10 -5 10 -10 0 -6 11 -15 25 -22 13 -6 22 -15 19 -20 -3 -5 -11 -5 -18 1
-14 12 -26 5 -26 -15 0 -14 37 -13 60 1 8 5 29 8 47 6 19 -1 33 2 33 8 0 6 -4
11 -10 11 -14 0 -12 27 3 33 10 4 10 6 0 6 -24 2 -13 21 12 21 14 0 25 4 25 9
0 14 -10 16 -57 13z"/>
<path d="M2464 1395 c-15 -23 -15 -27 0 -50 20 -31 58 -33 86 -5 24 24 25 43
4 64 -24 25 -71 20 -90 -9z m66 -32 c0 -20 -4 -24 -22 -21 -26 3 -35 32 -17
54 16 19 39 0 39 -33z"/>
<path d="M4573 1413 c-15 -6 -18 -53 -3 -53 5 0 7 6 4 14 -3 9 5 15 25 19 17
4 31 11 31 17 0 10 -35 12 -57 3z"/>
<path d="M3163 1370 c-2 -25 6 -25 23 -2 10 12 13 13 14 3 0 -10 3 -11 14 -2
9 7 17 8 20 3 5 -9 -16 -24 -37 -26 -5 -1 -15 -12 -22 -26 l-14 -25 -1 28 c0
20 -4 27 -16 25 -10 -2 -19 3 -22 11 -3 10 0 12 12 8 10 -4 15 -3 11 3 -12 20
-35 10 -35 -15 0 -15 6 -25 14 -25 15 0 26 -21 26 -51 0 -10 4 -19 8 -19 5 0
7 -14 6 -30 -2 -27 0 -29 14 -18 13 11 15 10 10 -3 -4 -9 -2 -21 4 -27 7 -7 3
-14 -12 -22 -20 -11 -21 -10 -10 9 14 27 0 27 -24 0 -22 -26 -8 -46 21 -31 10
6 31 8 46 5 16 -3 27 -1 27 6 0 6 -4 11 -10 11 -5 0 -10 5 -10 12 0 6 7 5 18
-5 15 -13 21 -14 32 -4 10 9 11 9 6 0 -4 -7 -2 -13 3 -13 6 0 11 5 11 12 0 6
8 20 17 30 9 11 18 27 19 36 2 15 1 15 -11 -1 -7 -10 -29 -22 -49 -27 -34 -8
-36 -7 -40 24 -15 98 -14 116 5 126 28 16 12 37 -29 38 -31 1 -38 -2 -39 -18z
m44 -69 c1 -11 -5 -25 -13 -32 -11 -9 -14 -9 -14 0 0 7 -4 9 -10 6 -5 -3 -10
-1 -10 5 0 7 7 10 15 7 8 -4 17 -2 20 3 4 6 1 10 -5 10 -6 0 -8 5 -5 10 10 16
21 12 22 -9z m0 -57 c-3 -3 -12 -4 -19 -1 -8 3 -5 6 6 6 11 1 17 -2 13 -5z m7
-44 c-6 -6 -10 -3 -10 10 0 13 4 16 10 10 7 -7 7 -13 0 -20z"/>
<path d="M4523 1340 c0 -30 2 -43 4 -27 2 15 2 39 0 55 -2 15 -4 2 -4 -28z"/>
<path d="M3623 1340 c0 -25 2 -35 4 -22 2 12 2 32 0 45 -2 12 -4 2 -4 -23z"/>
<path d="M2067 1364 c-3 -4 -3 -19 0 -35 7 -35 -13 -65 -32 -49 -7 6 -11 20
-8 30 8 31 -14 51 -43 39 -14 -5 -44 -9 -67 -9 -61 0 -87 -10 -87 -31 0 -11 7
-19 15 -19 8 0 15 7 15 17 0 31 13 3 15 -32 0 -19 4 -35 8 -35 4 0 14 0 23 0
11 0 14 5 10 16 -19 51 -18 63 6 62 12 -1 28 -5 34 -10 13 -10 7 -48 -7 -48
-5 0 -9 -4 -9 -10 0 -13 47 -13 55 0 4 6 1 17 -5 25 -9 11 -9 15 -1 15 6 0 16
-8 22 -18 8 -13 21 -16 50 -14 35 4 57 22 27 22 -7 0 -1 10 14 21 24 17 26 24
17 41 -8 15 -8 19 0 14 6 -4 11 -2 11 3 0 12 -52 15 -63 5z m-57 -44 c0 -5 -7
-10 -15 -10 -8 0 -15 5 -15 10 0 6 7 10 15 10 8 0 15 -4 15 -10z"/>
<path d="M2913 1337 c-30 -21 -71 -66 -76 -84 -1 -4 -9 -8 -17 -8 -8 0 -14 -3
-12 -8 1 -4 2 -12 2 -18 0 -7 10 -5 25 5 21 14 24 14 19 1 -4 -8 -10 -15 -15
-15 -4 0 -20 -12 -36 -26 -25 -23 -28 -24 -34 -7 -6 14 -8 15 -8 2 -1 -22 10
-31 25 -19 9 8 12 6 10 -7 -2 -25 30 -28 37 -3 5 18 3 20 -11 8 -12 -9 -11 -5
2 10 l20 23 32 -36 c18 -19 36 -35 40 -35 4 0 4 3 1 6 -3 4 -2 14 3 24 6 11 4
33 -5 63 -8 26 -11 47 -6 47 4 0 13 11 20 24 15 27 56 39 71 21 10 -13 38 -14
57 -2 6 4 14 3 18 -3 3 -5 10 -10 15 -10 5 0 -2 11 -16 25 -14 14 -30 22 -36
19 -6 -4 -8 -2 -4 4 10 17 -34 26 -59 12 -13 -7 -28 -23 -35 -36 -7 -13 -18
-21 -23 -17 -6 3 4 19 22 35 37 33 20 36 -26 5z m-31 -50 c-12 -13 -19 -27
-15 -32 5 -4 2 -5 -4 -1 -10 5 -7 15 9 36 12 17 24 28 26 25 3 -3 -4 -16 -16
-28z m38 -1 c0 -3 -4 -8 -10 -11 -5 -3 -10 -1 -10 4 0 6 5 11 10 11 6 0 10 -2
10 -4z m-20 -60 c0 -8 -4 -17 -9 -20 -12 -8 -8 -30 9 -52 14 -18 14 -18 -7 -1
-14 13 -20 26 -16 40 2 12 5 28 5 35 2 17 18 15 18 -2z"/>
<path d="M3510 1321 c0 -17 5 -33 10 -36 6 -4 8 -11 5 -16 -4 -5 4 -9 17 -9
21 -1 22 -2 6 -14 -27 -20 -22 -36 10 -30 22 4 29 0 39 -20 7 -16 7 -26 1 -26
-5 0 -12 9 -15 20 -7 27 -22 16 -16 -13 4 -19 3 -20 -7 -4 -15 23 -29 22 -23
-3 8 -29 19 -33 56 -19 33 12 33 12 23 51 -9 34 -14 39 -34 35 -21 -4 -21 -3
-7 13 22 24 19 30 -15 30 -20 0 -30 5 -30 15 0 10 10 15 30 15 17 0 30 5 30
10 0 6 -13 10 -30 10 -16 0 -30 5 -30 10 0 6 -4 10 -10 10 -5 0 -10 -13 -10
-29z"/>
<path d="M4561 1318 c1 -24 3 -27 6 -10 5 27 23 29 23 2 0 -27 18 -25 23 3 l4
22 2 -23 c1 -30 21 -18 21 14 0 21 -4 24 -40 24 -39 0 -40 -1 -39 -32z"/>
<path d="M2641 1303 c-41 -20 -74 -62 -62 -77 6 -7 6 -17 -1 -26 -8 -12 -8
-11 -3 5 5 15 3 17 -5 8 -15 -14 -4 -67 18 -85 13 -11 14 -11 7 1 -5 10 -4 12
4 7 6 -4 9 -11 6 -15 -2 -5 5 -17 16 -27 11 -10 20 -14 19 -9 -4 20 0 35 10
35 5 0 9 -10 7 -22 -2 -24 22 -32 35 -13 5 6 8 6 8 -2 0 -7 7 -13 15 -13 8 0
15 4 15 10 0 5 6 7 13 4 13 -4 57 26 57 40 0 15 -45 23 -60 11 -23 -20 -65
-22 -83 -4 -9 9 -20 32 -25 50 -5 19 -14 33 -21 31 -8 -1 -8 4 1 18 7 11 17
20 22 20 4 0 3 -7 -4 -15 -7 -8 -8 -15 -4 -15 5 0 15 9 22 20 21 34 53 40 85
18 15 -11 27 -28 27 -38 0 -15 38 -36 48 -25 7 7 -19 46 -27 40 -5 -2 -15 3
-22 12 -8 9 -9 14 -3 10 7 -4 17 -1 23 6 33 41 -73 71 -138 40z m39 -3 c-8 -5
-15 -15 -15 -22 0 -7 -9 -14 -20 -16 -18 -4 -18 -2 4 22 14 14 29 26 35 26 6
0 4 -5 -4 -10z m85 -21 c-4 -5 -12 -9 -18 -8 -9 0 -8 2 1 6 6 2 9 10 6 15 -4
7 -2 8 5 4 6 -4 9 -12 6 -17z m-155 -23 c0 -2 -7 -9 -15 -16 -13 -11 -14 -10
-9 4 5 14 24 23 24 12z m180 -130 c0 -2 -8 -10 -18 -19 -16 -15 -18 -15 -19 1
-1 11 6 18 18 19 10 1 19 0 19 -1z"/>
<path d="M2119 1308 c-9 -30 -5 -38 17 -38 13 0 24 3 24 6 0 12 -38 42 -41 32z"/>
<path d="M3056 1292 c-3 -5 1 -9 9 -9 8 0 12 4 9 9 -3 4 -7 8 -9 8 -2 0 -6 -4
-9 -8z"/>
<path d="M2468 1281 c9 -6 7 -12 -7 -25 -19 -17 -19 -17 -14 3 6 25 -15 29
-24 5 -7 -18 15 -36 35 -29 9 3 12 -4 9 -23 -3 -21 -9 -26 -25 -24 -12 2 -22
-2 -22 -8 0 -6 4 -9 9 -5 5 3 13 0 16 -5 5 -7 12 -5 21 7 8 11 13 13 14 6 0
-7 1 -16 3 -20 1 -3 -8 -8 -20 -9 -13 -2 -23 1 -23 7 0 7 -6 7 -17 -2 -10 -8
-14 -9 -10 -2 4 7 -2 18 -13 26 -12 8 -20 18 -18 23 2 5 -1 10 -7 12 -5 1 -10
-1 -10 -5 0 -5 -4 -14 -9 -21 -6 -10 -11 -10 -22 -1 -11 9 -14 8 -14 -5 0 -9
7 -16 15 -16 8 0 15 -5 15 -11 0 -5 -4 -8 -9 -5 -5 3 -8 -14 -8 -39 1 -25 -1
-45 -5 -45 -5 0 -8 -8 -8 -17 0 -14 2 -15 9 -4 5 8 14 10 22 6 8 -6 11 -4 7 6
-4 10 1 15 13 15 10 0 21 -6 24 -14 2 -7 1 -11 -4 -7 -5 3 -16 -2 -24 -10 -9
-8 -17 -11 -19 -6 -2 5 -9 3 -16 -5 -11 -12 -9 -14 13 -14 14 0 25 4 25 10 0
5 14 7 30 5 26 -3 30 0 30 20 0 14 -7 25 -18 27 -25 7 -19 68 6 63 10 -2 26
-4 37 -4 18 -1 20 -6 17 -41 -3 -33 -7 -39 -18 -29 -18 14 -18 -1 -1 -25 12
-17 15 -16 48 10 24 20 28 22 15 6 -20 -24 -13 -28 32 -16 25 7 31 44 7 44
-19 0 -31 30 -30 75 1 19 -2 35 -7 35 -13 0 -9 27 7 44 11 10 12 17 4 22 -7 4
-16 -1 -21 -10 -10 -18 -28 -22 -28 -5 0 5 4 8 9 5 5 -3 12 1 15 10 4 9 13 14
21 10 8 -3 15 -2 15 3 0 5 -19 9 -42 9 -23 1 -37 -3 -30 -7z m28 -76 c-3 -9
-11 -13 -16 -10 -8 5 -7 11 1 21 14 18 24 11 15 -11z m-100 -47 c-9 -5 -14
-13 -12 -17 3 -4 -1 -8 -9 -8 -8 0 -15 7 -15 14 0 8 4 12 9 9 5 -3 12 1 15 10
3 8 11 12 17 8 8 -5 6 -10 -5 -16z m110 -13 c-9 -9 -16 -12 -16 -6 0 5 5 13
10 16 6 4 7 12 4 18 -5 9 -4 9 6 0 10 -9 10 -15 -4 -28z m-148 -26 c9 -13 9
-16 -3 -16 -8 0 -15 9 -15 20 0 11 1 18 3 16 1 -2 8 -11 15 -20z"/>
<path d="M3037 1248 c7 -53 13 -62 13 -19 0 27 2 30 18 22 12 -6 23 -5 36 5
15 11 16 15 5 19 -8 2 -23 3 -34 1 -11 -2 -25 1 -32 6 -8 7 -10 -2 -6 -34z"/>
<path d="M2786 1261 c-17 -19 -17 -19 1 -16 10 2 20 4 23 5 3 1 9 2 14 1 5 -1
4 5 -4 13 -15 20 -13 20 -34 -3z"/>
<path d="M4569 1272 c10 -8 8 -13 -10 -25 -12 -9 -21 -18 -18 -20 10 -10 79
-15 79 -6 0 5 -8 9 -17 10 -14 0 -13 3 5 11 31 15 22 32 -19 36 -23 2 -30 0
-20 -6z"/>
<path d="M2293 1255 c-20 -22 -15 -33 17 -40 17 -4 30 -11 30 -16 0 -6 5 -7
10 -4 14 9 -6 45 -23 41 -6 -1 -9 -1 -4 1 4 3 5 9 2 13 -3 5 10 3 29 -5 48
-20 56 -19 55 8 0 12 -3 16 -6 10 -6 -15 -53 -18 -53 -3 0 15 -43 11 -57 -5z"/>
<path d="M3321 1250 c13 -10 20 -19 15 -20 -5 0 -3 -7 4 -15 10 -12 9 -15 -5
-15 -15 0 -16 -2 -4 -17 10 -11 10 -14 2 -9 -7 4 -13 2 -13 -3 0 -17 30 -13
36 4 3 8 2 31 -3 51 -6 28 -14 38 -32 41 l-24 3 24 -20z"/>
<path d="M2214 1248 c-5 -8 -2 -9 9 -5 25 10 20 -2 -5 -14 -22 -9 -22 -9 -2
-6 27 6 49 -7 39 -22 -5 -9 -10 -9 -21 0 -19 16 -30 4 -15 -15 20 -24 47 -15
49 16 1 15 -2 28 -8 28 -5 0 -7 7 -4 15 7 18 -31 21 -42 3z"/>
<path d="M4511 1244 c0 -11 3 -14 6 -6 3 7 2 16 -1 19 -3 4 -6 -2 -5 -13z"/>
<path d="M3083 1228 c-11 -13 -18 -29 -15 -37 3 -10 0 -12 -13 -7 -11 4 -25 0
-35 -9 -9 -8 -33 -16 -53 -17 -32 -3 -37 -6 -37 -28 0 -18 3 -21 9 -11 6 9 11
10 15 2 5 -8 14 -4 27 11 l20 23 -11 -22 c-9 -19 -8 -23 5 -23 8 0 15 5 15 11
0 6 7 8 16 5 9 -3 26 5 42 21 15 15 30 27 35 25 4 -1 7 3 7 9 0 6 -7 8 -16 5
-14 -5 -15 -4 -4 9 7 8 15 13 19 11 4 -3 8 6 9 20 2 30 -9 31 -35 2z m-25 -75
c-11 -12 -26 -19 -32 -15 -7 4 -4 8 7 10 10 2 16 9 14 16 -3 6 4 12 14 12 17
0 17 -2 -3 -23z"/>
<path d="M2095 1226 c-49 -21 -70 -52 -57 -80 7 -17 7 -27 0 -34 -13 -13 5
-63 33 -88 23 -21 25 -12 3 11 -13 13 -14 21 -6 41 9 19 9 24 -3 24 -9 0 -12
-6 -9 -17 5 -17 5 -17 -6 -1 -8 14 -6 22 11 39 24 24 26 23 32 -16 2 -16 9
-31 15 -33 14 -4 16 14 4 22 -5 3 -6 22 -3 43 4 26 14 41 31 50 20 10 21 13 6
13 -15 0 -16 3 -7 14 7 8 21 13 32 11 10 -2 19 0 19 6 0 13 -60 10 -95 -5z
m13 -22 c18 -5 20 -9 11 -21 -10 -11 -14 -11 -21 -1 -7 9 -8 7 -5 -8 4 -17 0
-21 -21 -20 -32 1 -41 25 -13 33 11 3 18 9 15 14 -6 10 2 11 34 3z"/>
<path d="M1984 1211 c3 -5 -1 -12 -10 -15 -12 -5 -13 -8 -2 -19 15 -17 38 -18
38 -1 0 21 -12 44 -22 44 -5 0 -7 -4 -4 -9z"/>
<path d="M2170 1210 c0 -6 7 -10 15 -10 8 0 15 2 15 4 0 2 -7 6 -15 10 -8 3
-15 1 -15 -4z"/>
<path d="M3640 1215 c0 -5 5 -17 10 -25 5 -8 10 -10 10 -5 0 6 -5 17 -10 25
-5 8 -10 11 -10 5z"/>
<path d="M1879 1203 c-1 -4 -1 -12 0 -16 1 -5 -3 -6 -8 -3 -14 9 -34 -22 -27
-41 5 -13 9 -14 15 -5 10 16 41 5 41 -15 0 -11 -7 -14 -21 -10 -17 4 -18 3 -8
-9 7 -9 16 -11 23 -5 6 5 20 5 30 1 14 -4 16 -9 8 -14 -13 -8 -7 -26 9 -26 6
0 8 4 5 9 -3 5 3 11 14 14 11 3 20 9 20 14 0 15 -46 33 -56 23 -5 -5 -10 4
-11 21 -2 23 2 29 18 29 11 0 22 -7 25 -15 4 -8 17 -15 31 -15 14 0 22 4 18
11 -4 6 -10 8 -13 5 -11 -11 -42 26 -32 39 7 8 -3 12 -35 14 -25 1 -46 -2 -46
-6z m41 -10 c-1 -10 -26 -43 -33 -43 -3 0 0 11 6 25 11 23 27 34 27 18z"/>
<path d="M4496 1193 c-6 -14 -5 -15 5 -6 7 7 10 15 7 18 -3 3 -9 -2 -12 -12z"/>
<path d="M4535 1189 c-4 -12 -2 -26 5 -33 10 -8 12 -7 7 7 -8 22 19 35 36 18
9 -9 8 -14 -3 -21 -18 -11 -6 -25 15 -17 18 7 20 38 3 55 -20 20 -56 14 -63
-9z"/>
<path d="M3610 1141 c0 -5 5 -11 12 -13 18 -6 0 -40 -19 -36 -10 2 -18 8 -18
15 0 6 -3 15 -7 19 -5 4 -8 -2 -8 -13 0 -27 24 -46 49 -38 22 7 33 28 25 49
-6 17 -34 30 -34 17z"/>
<path d="M4504 1123 c-8 -14 -13 -28 -9 -31 4 -4 11 1 16 11 14 25 32 22 19
-3 -13 -25 -2 -26 17 -2 13 16 14 15 10 -5 -7 -30 7 -29 20 0 10 21 8 25 -23
39 -32 15 -34 15 -50 -9z"/>
<path d="M3193 1107 c-29 -5 -53 -14 -53 -18 0 -5 5 -9 10 -9 6 0 10 -8 10
-17 0 -14 -3 -13 -23 5 -32 30 -61 30 -51 0 4 -13 7 -35 6 -49 0 -22 3 -26 19
-22 15 4 17 11 12 32 l-6 26 25 -22 c33 -31 40 -29 36 14 -1 21 2 38 8 40 14
5 28 -43 18 -59 -7 -11 116 -5 136 7 17 10 11 34 -10 45 -11 6 -20 16 -19 23
0 9 2 9 6 0 7 -18 23 -16 23 2 0 18 -41 20 -58 3 -9 -9 -12 -9 -12 0 0 13 -4
13 -77 -1z m116 -36 c22 -12 29 -31 11 -31 -5 0 -10 4 -10 10 0 11 -35 8 -46
-3 -11 -11 -34 -8 -34 3 0 6 7 10 15 10 21 0 19 17 -2 24 -10 2 -4 3 13 1 17
-1 41 -8 53 -14z"/>
<path d="M3689 1102 c5 -10 18 -25 27 -33 11 -9 9 -2 -6 19 -26 35 -36 42 -21
14z"/>
<path d="M2236 1093 c-6 -14 -5 -15 5 -6 7 7 10 15 7 18 -3 3 -9 -2 -12 -12z"/>
<path d="M2265 1100 c3 -5 11 -10 16 -10 6 0 7 5 4 10 -3 6 -11 10 -16 10 -6
0 -7 -4 -4 -10z"/>
<path d="M4439 1083 c-13 -16 -12 -17 4 -4 16 13 21 21 13 21 -2 0 -10 -8 -17
-17z"/>
<path d="M1971 1072 c-5 -10 -6 -24 -2 -31 7 -11 10 -11 14 0 3 9 6 9 6 2 1
-6 -13 -22 -31 -34 -17 -13 -28 -18 -25 -12 11 18 -9 25 -23 8 -7 -8 -19 -15
-26 -15 -8 0 -14 -7 -14 -15 0 -8 5 -15 10 -15 6 0 10 6 10 13 0 8 4 7 11 -3
6 -9 12 -11 15 -5 2 6 20 10 39 9 19 -1 38 2 41 7 3 5 10 7 15 4 5 -4 14 6 19
20 14 36 13 37 -12 29 -22 -6 -22 -6 -6 13 14 15 15 22 6 31 -17 17 -36 15
-47 -6z m38 -66 c10 -12 8 -13 -8 -9 -12 3 -27 1 -34 -3 -7 -5 -4 -1 6 9 23
21 22 20 36 3z"/>
<path d="M2995 1079 c-27 -5 -85 -13 -128 -18 -42 -4 -80 -11 -83 -14 -4 -3 1
-13 10 -22 18 -19 21 -41 6 -50 -5 -3 -10 1 -10 9 0 9 -4 16 -10 16 -5 0 -9
-5 -7 -12 1 -6 -6 -14 -17 -16 -16 -3 -18 1 -14 32 4 32 1 36 -19 36 -13 0
-23 -4 -23 -10 0 -5 5 -10 10 -10 13 0 13 -47 -1 -55 -15 -10 -22 0 -23 36
l-1 31 -57 -6 c-32 -3 -85 -9 -118 -12 -58 -7 -72 -15 -49 -30 6 -4 9 -20 6
-39 -5 -29 -3 -32 19 -27 18 3 22 8 14 17 -7 8 -3 15 15 23 14 6 25 19 25 27
0 9 5 13 10 10 6 -3 10 -19 10 -35 0 -27 2 -29 40 -28 39 0 66 18 42 26 -18 6
-15 52 3 52 14 0 20 -24 15 -59 -1 -11 8 -12 42 -7 24 4 64 10 89 13 l47 5 -5
39 c-5 32 -2 39 11 39 12 0 16 -9 16 -35 0 -32 3 -35 28 -34 15 0 21 3 15 6
-19 7 -16 21 6 28 12 3 21 17 23 33 l4 27 12 -29 c9 -21 10 -32 1 -42 -9 -11
-6 -14 15 -14 22 0 26 4 22 18 -4 12 1 21 17 27 13 6 21 17 19 29 -2 12 1 15
8 11 8 -5 10 -21 7 -41 -5 -31 -4 -34 20 -34 23 0 24 3 17 28 -4 15 -7 37 -7
50 1 12 -4 21 -11 21 -6 -1 -33 -6 -61 -10z m-5 -29 c0 -5 -2 -10 -4 -10 -3 0
-8 5 -11 10 -3 6 -1 10 4 10 6 0 11 -4 11 -10z m-85 -20 c-3 -5 -10 -10 -16
-10 -5 0 -9 5 -9 10 0 6 7 10 16 10 8 0 12 -4 9 -10z m-295 -30 c0 -5 -7 -10
-15 -10 -8 0 -15 5 -15 10 0 6 7 10 15 10 8 0 15 -4 15 -10z m-100 -20 c0 -5
-4 -10 -10 -10 -5 0 -10 5 -10 10 0 6 5 10 10 10 6 0 10 -4 10 -10z m100 -19
c0 -17 -18 -21 -24 -6 -3 9 0 15 9 15 8 0 15 -4 15 -9z"/>
<path d="M2093 1045 c13 -27 42 -30 42 -5 0 8 -7 15 -15 15 -8 0 -20 4 -27 8
-8 5 -8 1 0 -18z m32 -5 c3 -5 1 -10 -4 -10 -6 0 -11 5 -11 10 0 6 2 10 4 10
3 0 8 -4 11 -10z"/>
<path d="M2188 1048 c-21 -11 -38 -24 -38 -28 0 -9 67 23 84 40 16 16 -5 11
-46 -12z"/>
<path d="M2265 1049 c-4 -6 -5 -12 -2 -15 2 -3 7 2 10 11 7 17 1 20 -8 4z"/>
<path d="M2230 1030 c-9 -16 -8 -18 5 -14 8 4 15 12 15 20 0 20 -7 17 -20 -6z"/>
<path d="M3745 1030 c10 -11 20 -20 23 -20 3 0 -3 9 -13 20 -10 11 -20 20 -23
20 -3 0 3 -9 13 -20z"/>
<path d="M4365 1003 c-27 -25 -36 -37 -20 -25 28 19 84 73 74 72 -2 -1 -26
-22 -54 -47z"/>
<path d="M1888 1033 c10 -4 10 -8 0 -21 -11 -13 -11 -14 2 -10 23 7 25 38 3
37 -11 0 -13 -3 -5 -6z"/>
<path d="M2166 1011 c-5 -7 -19 -11 -32 -8 -13 2 -21 0 -18 -4 7 -13 66 -11
84 2 13 9 13 10 -2 6 -9 -3 -18 -1 -21 6 -2 8 -6 7 -11 -2z"/>
<path d="M3780 996 c0 -3 9 -10 20 -16 11 -6 20 -8 20 -6 0 3 -9 10 -20 16
-11 6 -20 8 -20 6z"/>
<path d="M2295 981 c-31 -5 -39 -10 -37 -23 2 -11 -3 -18 -14 -18 -11 0 -14 5
-10 16 6 15 0 16 -46 11 -29 -4 -60 -7 -70 -7 -11 0 -15 -6 -11 -21 4 -15 8
-17 14 -8 11 18 23 -14 16 -41 -4 -16 0 -20 18 -20 21 0 23 3 18 43 -3 29 -2
38 5 28 8 -11 11 -10 14 5 4 16 7 14 17 -10 6 -16 9 -36 6 -44 -5 -13 5 -14
62 -8 91 9 113 16 113 32 0 16 -16 19 -25 4 -4 -6 -11 -7 -17 -4 -7 4 -5 10 6
16 21 12 20 25 -1 32 -13 3 -12 4 3 3 11 -1 22 3 23 8 2 12 -31 15 -84 6z m19
-33 c8 -33 8 -38 -8 -38 -14 0 -29 37 -20 52 9 15 22 8 28 -14z m-46 -39 c-2
-6 -8 -10 -13 -10 -5 0 -11 4 -13 10 -2 6 4 11 13 11 9 0 15 -5 13 -11z"/>
<path d="M3830 966 c0 -3 9 -10 20 -16 11 -6 20 -8 20 -6 0 3 -9 10 -20 16
-11 6 -20 8 -20 6z"/>
<path d="M4290 949 c0 -5 5 -7 10 -4 6 3 10 8 10 11 0 2 -4 4 -10 4 -5 0 -10
-5 -10 -11z"/>
<path d="M2005 931 c-3 -5 -1 -12 5 -16 5 -3 10 -11 10 -17 0 -6 -10 -2 -23
10 -13 12 -31 22 -40 22 -20 0 -21 -4 -5 -29 15 -24 4 -53 -18 -44 -12 4 -15
14 -11 39 6 34 1 39 -27 28 -12 -4 -13 -11 -5 -31 5 -14 7 -35 3 -45 -6 -19
-3 -20 41 -15 57 7 60 10 46 35 -19 36 -12 37 19 4 33 -36 33 -36 34 25 1 40
-14 58 -29 34z"/>
<path d="M3822 885 c-7 -14 -12 -27 -12 -29 0 -1 14 0 32 2 28 4 30 2 25 -17
-3 -11 -1 -21 4 -21 5 0 9 5 9 10 0 6 7 10 15 10 9 0 12 -6 9 -15 -4 -8 -3
-15 0 -15 4 0 11 10 16 23 8 21 9 20 10 -8 2 -30 2 -30 10 -5 14 44 12 49 -20
44 -20 -4 -30 -1 -30 7 0 7 -3 9 -7 6 -3 -4 -12 2 -20 13 -19 26 -27 25 -41
-5z m38 -5 c0 -5 -4 -10 -10 -10 -5 0 -10 5 -10 10 0 6 5 10 10 10 6 0 10 -4
10 -10z"/>
<path d="M4145 900 c-19 -8 -19 -9 2 -9 12 -1 25 4 28 9 7 12 -2 12 -30 0z"/>
<path d="M4292 897 c-18 -21 -3 -59 22 -55 29 4 26 31 -4 39 -16 4 -19 7 -7 8
9 1 17 6 17 11 0 14 -16 12 -28 -3z"/>
<path d="M4228 873 c-10 -2 -18 -14 -18 -25 0 -20 -1 -20 -19 -4 -19 17 -20
17 -24 -6 -4 -23 -4 -23 -6 0 -1 20 -21 33 -21 13 0 -4 -11 -6 -25 -3 -23 4
-25 1 -25 -32 0 -20 5 -36 10 -36 6 0 10 7 10 15 0 8 2 15 4 15 2 0 11 3 20 6
11 4 16 1 16 -10 0 -9 5 -16 10 -16 6 0 10 6 10 13 0 8 4 7 11 -3 9 -12 10
-11 6 7 -4 19 -2 21 13 13 28 -15 31 -13 25 18 l-5 27 11 -27 c12 -30 14 -31
44 -18 19 8 18 9 -4 9 -24 1 -24 1 -5 16 18 14 18 14 -6 15 -23 1 -23 2 -5 10
21 9 3 11 -27 3z"/>
<path d="M3960 848 c0 -7 -3 -23 -6 -35 -5 -19 -2 -23 16 -23 19 0 20 2 10 15
-7 8 -10 24 -7 35 3 11 1 20 -4 20 -5 0 -9 -6 -9 -12z"/>
<path d="M4011 813 l2 -38 7 35 7 35 3 -35 c1 -19 4 -27 7 -17 2 9 13 17 24
17 36 0 18 35 -19 38 -31 3 -32 2 -31 -35z m54 17 c3 -5 -1 -10 -10 -10 -9 0
-13 5 -10 10 3 6 8 10 10 10 2 0 7 -4 10 -10z"/>
</g>
</svg>
