<?xml version="1.0" standalone="no"?>
<!DOCTYPE svg PUBLIC "-//W3C//DTD SVG 20010904//EN"
 "http://www.w3.org/TR/2001/REC-SVG-20010904/DTD/svg10.dtd">
<svg version="1.0" xmlns="http://www.w3.org/2000/svg"
 width="400.000000pt" height="400.000000pt" viewBox="0 0 400.000000 400.000000"
 preserveAspectRatio="xMidYMid meet">

<g transform="translate(0.000000,400.000000) scale(0.100000,-0.100000)"
fill="#000000" stroke="none">
<path d="M1825 3804 c-752 -90 -1363 -607 -1561 -1322 -76 -272 -83 -604 -19
-877 23 -96 71 -245 100 -308 14 -29 25 -71 25 -95 0 -37 3 -43 18 -38 14 5
25 -7 50 -50 18 -31 32 -62 32 -70 0 -8 3 -14 8 -14 4 0 35 -38 70 -84 288
-386 687 -633 1169 -723 78 -14 145 -18 323 -17 203 0 237 3 350 27 463 98
847 341 1122 712 318 427 424 984 290 1515 -109 427 -385 808 -772 1062 -91
60 -288 157 -390 192 -256 87 -560 121 -815 90z m576 -144 c12 0 19 -7 19 -20
0 -13 -7 -20 -19 -20 -10 0 -22 -7 -25 -16 -9 -24 -7 -54 4 -54 6 0 10 -9 10
-20 0 -12 -7 -20 -18 -20 -13 0 -22 -18 -38 -77 -17 -66 -23 -77 -40 -75 -10
2 -20 5 -21 6 -1 0 6 35 16 77 13 54 15 80 7 92 -8 13 -6 21 12 37 12 11 22
27 22 35 0 32 20 67 36 61 9 -3 24 -6 35 -6z m220 -72 c30 -12 57 -27 61 -32
6 -8 -14 -72 -27 -84 -2 -2 -13 -1 -24 3 -17 5 -19 9 -9 31 12 27 6 38 -27 48
-18 5 -25 -7 -60 -96 -22 -55 -41 -104 -43 -108 -2 -5 40 -30 52 -30 2 0 9 14
16 30 13 32 17 34 39 21 17 -11 9 -49 -16 -80 l-18 -22 -59 22 c-32 12 -60 29
-63 36 -3 8 13 61 36 118 22 58 41 109 41 113 0 12 30 52 39 52 5 0 33 -10 62
-22z m-1115 -126 c55 -122 60 -138 46 -150 -9 -6 -19 -9 -23 -5 -17 18 -129
275 -124 283 3 6 14 10 23 10 12 0 35 -40 78 -138z m492 126 c7 -7 12 -29 12
-50 0 -31 -4 -40 -23 -47 -13 -5 -32 -9 -43 -8 -14 2 -20 -5 -22 -25 -3 -23 1
-28 17 -28 12 0 21 7 21 15 0 9 9 15 25 15 21 0 25 -5 25 -29 0 -32 -17 -41
-82 -41 -27 0 -40 6 -48 19 -15 29 -13 178 3 184 24 10 103 7 115 -5z m-152
-95 c10 -54 18 -116 18 -138 l1 -39 -54 -9 c-47 -8 -56 -7 -68 9 -7 10 -13 21
-13 25 0 11 45 19 48 9 7 -19 42 -11 42 10 0 17 -7 20 -45 20 -43 0 -45 1 -54
38 -6 20 -13 60 -17 87 -8 68 -1 73 108 83 13 2 20 -17 34 -95z m411 74 c14
-14 -5 -169 -22 -186 -11 -11 -109 0 -122 12 -6 7 14 175 24 190 7 11 105 -2
120 -16z m-829 -138 c40 -72 71 -138 68 -145 -10 -25 -32 -15 -53 24 -12 20
-30 53 -40 72 -11 19 -35 61 -52 93 -32 56 -35 87 -9 87 7 0 46 -59 86 -131z
m240 82 c17 -55 16 -56 -28 -74 -36 -14 -39 -18 -31 -39 4 -13 11 -22 15 -20
3 1 13 2 22 2 11 0 15 6 11 19 -3 12 1 22 11 26 20 7 31 -4 34 -35 3 -20 -4
-26 -46 -42 -27 -11 -55 -17 -62 -14 -16 6 -70 174 -60 184 12 12 69 30 97 31
22 1 28 -5 37 -38z m1086 -107 c25 -14 46 -30 46 -35 0 -5 -18 -46 -41 -90
-32 -64 -44 -79 -57 -74 -50 18 -92 41 -96 53 -7 16 75 172 90 172 6 0 32 -12
58 -26z m-1358 -70 c24 -34 44 -66 44 -72 0 -13 -79 -72 -96 -72 -15 0 -114
132 -114 151 0 8 21 29 47 46 54 38 54 38 119 -53z m-256 17 c33 -28 34 -30
18 -47 -17 -17 -18 -17 -37 0 -22 20 -48 16 -58 -9 -4 -12 16 -37 67 -83 93
-86 97 -88 121 -66 19 17 19 18 -1 39 -24 26 -26 43 -4 52 16 6 74 -42 74 -62
0 -17 -79 -105 -93 -105 -12 1 -219 186 -225 201 -5 12 77 109 92 109 6 0 27
-13 46 -29z m1770 -36 c25 -19 62 -44 83 -55 20 -11 37 -23 37 -27 0 -17 -104
-163 -117 -163 -29 0 -23 31 17 90 22 33 38 65 35 70 -14 22 -36 7 -75 -50
-39 -58 -61 -72 -75 -49 -4 6 14 41 39 79 43 65 45 70 27 80 -17 9 -25 2 -62
-55 -44 -66 -56 -74 -76 -54 -9 9 -7 18 6 38 67 97 94 131 104 130 7 0 32 -16
57 -34z m206 -152 c24 -21 43 -43 42 -50 -6 -26 -103 -132 -121 -132 -11 -1
-32 8 -47 19 l-29 21 -17 -26 c-18 -28 -42 -33 -50 -10 -4 10 25 51 80 115 48
55 89 100 92 100 3 0 25 -17 50 -37z m-898 12 c538 -80 971 -469 1108 -993
186 -716 -247 -1456 -961 -1643 -103 -26 -144 -32 -282 -36 -242 -8 -414 25
-612 118 -440 207 -732 623 -776 1106 l-6 72 40 26 c22 14 43 25 45 25 3 0 7
-45 8 -100 l3 -100 58 38 57 37 0 318 -1 318 128 84 c70 46 133 88 140 94 7 7
11 64 12 177 1 190 -9 167 113 249 176 120 377 191 613 219 77 8 224 5 313 -9z
m1002 -100 c11 -13 4 -24 -48 -72 -49 -44 -59 -59 -51 -70 19 -22 32 -16 84
37 50 51 72 61 81 36 4 -12 -112 -135 -136 -144 -9 -3 -90 73 -90 85 0 9 132
143 141 143 4 0 12 -7 19 -15z m170 -100 c11 -13 10 -18 -6 -30 -10 -7 -19
-24 -19 -37 0 -18 -5 -22 -24 -20 -33 3 -116 -65 -101 -83 7 -9 6 -16 -6 -26
-14 -11 -19 -10 -35 10 -11 13 -19 29 -19 36 0 7 24 32 54 56 30 24 56 53 58
64 2 14 10 19 25 18 11 -1 27 4 33 12 16 19 24 19 40 0z m40 -147 c16 -22 30
-47 30 -54 0 -13 -60 -64 -75 -64 -5 0 -21 15 -36 33 -27 32 -27 32 -48 13
-16 -15 -18 -22 -9 -33 6 -8 18 -11 26 -8 15 5 42 -11 42 -25 0 -8 -59 -35
-63 -29 -2 2 -15 21 -30 41 -15 20 -27 43 -27 51 0 13 134 116 152 117 5 0 21
-19 38 -42z m76 -120 c4 -13 15 -34 25 -47 25 -32 24 -36 -12 -62 -31 -22 -32
-22 -46 -3 -12 16 -11 20 6 34 27 20 12 51 -16 34 -104 -63 -149 -76 -141 -38
2 13 149 103 170 104 4 0 10 -10 14 -22z m-2689 -100 c-3 -8 -6 -5 -6 6 -1 11
2 17 5 13 3 -3 4 -12 1 -19z m0 -135 c-2 -16 -4 -3 -4 27 0 30 2 43 4 28 2
-16 2 -40 0 -55z m2922 16 c30 -73 28 -84 -20 -103 -46 -19 -44 -19 -53 10 -5
17 -2 23 19 28 25 6 32 29 17 54 -18 27 -56 -4 -92 -73 -32 -62 -39 -70 -85
-86 -27 -10 -53 -15 -57 -11 -13 13 -48 124 -42 133 2 5 23 14 45 21 34 10 42
9 50 -3 14 -22 11 -26 -21 -38 -34 -11 -36 -19 -16 -46 23 -32 56 -8 96 70 29
57 41 71 70 81 59 21 66 18 89 -37z m-3113 -28 c-7 -11 -86 -19 -86 -9 0 4 17
9 38 11 20 2 41 4 45 5 5 1 6 -2 3 -7z m-19 -63 c17 -13 17 -52 1 -66 -7 -5
-22 -12 -33 -14 -18 -3 -21 -13 -26 -88 l-5 -85 -2 83 c-2 76 -4 83 -25 91
-56 22 -59 73 -4 96 31 13 65 7 94 -17z m3125 -83 c14 -19 8 -33 -17 -39 -14
-4 -25 -13 -25 -20 0 -20 -28 -28 -38 -10 -13 22 -128 -5 -124 -30 2 -13 -3
-17 -20 -14 -17 2 -24 10 -26 34 -3 29 -1 31 57 47 34 9 68 17 76 17 8 0 15 7
15 15 0 10 12 14 48 12 26 -1 50 -6 54 -12z m-2915 -202 c-2 -27 -3 -5 -3 47
0 52 1 74 3 48 2 -27 2 -69 0 -95z m2883 73 c0 -20 -6 -24 -46 -30 -26 -3 -60
-6 -76 -6 -29 0 -48 -24 -32 -40 5 -5 41 -5 83 1 41 5 75 8 76 6 2 -1 5 -12 9
-23 6 -20 2 -22 -66 -28 -40 -4 -88 -9 -105 -13 -31 -5 -33 -3 -33 23 0 16 -4
44 -9 61 -12 41 -7 44 89 59 110 17 110 17 110 -10z m-2883 -188 c-2 -13 -4
-3 -4 22 0 25 2 35 4 23 2 -13 2 -33 0 -45z m2891 14 c6 -9 12 -28 12 -44 0
-27 1 -28 56 -28 52 0 55 -1 52 -22 -3 -25 9 -24 -240 -19 l-78 1 0 60 c0 54
3 62 23 69 35 14 160 1 175 -17z m-3092 -79 c18 -24 18 -26 -8 -50 -38 -35
-107 -31 -128 6 -33 63 91 103 136 44z m2984 -63 c115 -18 119 -20 102 -47 -6
-10 -28 -10 -102 0 -86 11 -95 15 -98 35 -4 26 3 26 98 12z m173 -26 c20 -7 9
-44 -14 -44 -22 0 -33 16 -25 35 6 16 16 18 39 9z m-169 -53 c37 -10 72 -23
77 -28 12 -12 -7 -98 -25 -112 -14 -12 -93 8 -100 26 -3 7 0 26 6 43 12 36 11
37 -22 42 -20 2 -26 -2 -28 -19 -2 -13 1 -23 7 -23 6 0 11 -9 11 -20 0 -11 -7
-20 -16 -20 -25 0 -54 19 -49 33 2 6 9 31 15 55 13 50 22 51 124 23z m-109
-123 c14 -6 25 -14 25 -18 0 -14 -29 -32 -41 -25 -10 7 -28 -10 -29 -26 0 -20
36 -15 71 8 39 26 41 26 74 10 41 -19 43 -33 14 -88 -18 -36 -23 -40 -47 -34
-34 8 -35 9 -27 35 5 14 12 19 25 15 11 -3 20 0 24 10 10 27 -21 28 -65 2 -40
-24 -43 -25 -75 -9 -19 9 -34 21 -34 28 0 26 42 104 56 104 2 0 15 -5 29 -12z
m-2956 -292 c-9 -8 -10 -6 -5 7 3 10 7 80 8 155 l2 137 3 -144 c3 -101 0 -148
-8 -155z m1345 -978 c9 -14 4 -24 -27 -56 -20 -21 -37 -40 -37 -43 0 -3 12 -5
28 -5 15 1 29 -3 32 -9 3 -6 -23 -11 -67 -13 -40 -2 -73 0 -73 4 0 3 23 26 50
51 56 50 61 63 25 63 -14 0 -25 -4 -25 -10 0 -5 -9 -10 -20 -10 -22 0 -28 35
-7 44 28 12 110 1 121 -16z m154 16 c21 -6 23 -11 20 -73 l-3 -66 -70 0 -70 0
-3 63 c-3 57 -1 63 20 72 27 10 74 12 106 4z m180 -3 c9 -5 12 -27 10 -72 l-3
-64 -59 -3 c-32 -2 -63 1 -68 6 -13 13 -12 124 2 132 16 10 103 11 118 1z m97
-66 c0 -65 -2 -70 -22 -73 -21 -3 -23 0 -23 47 0 28 -5 51 -10 51 -6 0 -3 11
6 25 9 14 24 25 33 23 13 -3 16 -17 16 -73z"/>
<path d="M1920 3542 c0 -24 8 -32 26 -25 22 8 17 43 -6 43 -13 0 -20 -7 -20
-18z"/>
<path d="M1755 3488 c9 -64 11 -68 36 -68 22 0 23 3 8 70 -8 40 -15 50 -31 50
-18 0 -19 -4 -13 -52z"/>
<path d="M2176 3542 c-2 -4 -7 -33 -10 -64 -7 -54 -6 -58 13 -58 16 0 21 8 26
38 3 20 8 47 10 58 4 15 -1 23 -15 27 -11 3 -22 2 -24 -1z"/>
<path d="M1586 3501 c-10 -16 5 -42 23 -39 21 4 21 42 -1 46 -9 2 -19 -1 -22
-7z"/>
<path d="M2683 3325 c-24 -48 -25 -57 -13 -65 23 -15 24 -14 54 47 21 44 25
58 14 64 -22 15 -27 10 -55 -46z"/>
<path d="M1291 3351 c-11 -7 -7 -19 23 -60 40 -54 47 -58 64 -38 8 9 1 25 -24
60 -36 49 -40 52 -63 38z"/>
<path d="M3036 3100 c-39 -44 -44 -58 -21 -66 22 -9 97 76 83 94 -16 18 -23
15 -62 -28z"/>
<path d="M1650 2823 c8 -3 22 -11 30 -17 13 -10 13 -9 1 7 -7 9 -21 17 -30 16
-13 0 -14 -1 -1 -6z"/>
<path d="M1816 2788 c7 -25 24 -39 36 -32 5 3 1 12 -7 20 -8 9 -15 20 -15 25
0 5 -5 9 -11 9 -6 0 -8 -9 -3 -22z"/>
<path d="M1555 2750 c10 -11 20 -20 23 -20 3 0 -3 9 -13 20 -10 11 -20 20 -23
20 -3 0 3 -9 13 -20z"/>
<path d="M1918 2739 l-3 -24 -194 -1 -194 -1 -24 -74 c-13 -41 -26 -82 -28
-92 -2 -10 -22 -76 -44 -145 -22 -70 -46 -149 -54 -177 -12 -42 -18 -50 -40
-53 -32 -4 -33 -9 -6 -31 l21 -17 -42 -138 c-23 -76 -40 -140 -37 -142 2 -2
40 -6 83 -8 43 -2 87 -4 97 -5 17 -1 17 -3 -3 -32 -12 -16 -19 -33 -16 -36 3
-4 6 -1 6 6 0 7 7 10 18 7 65 -19 68 -19 86 18 l17 36 379 0 379 0 22 75 c12
40 26 72 31 69 16 -10 8 -109 -13 -154 -37 -82 -109 -128 -214 -136 -163 -13
-227 -23 -220 -34 3 -5 22 -7 43 -4 34 3 35 3 18 -10 -10 -8 -15 -19 -11 -25
11 -18 -7 -12 -21 7 -12 16 -13 15 -11 -5 0 -12 5 -19 9 -17 4 3 8 -8 8 -25 0
-24 -3 -29 -17 -25 -17 5 -17 5 -1 -9 10 -8 15 -17 11 -20 -3 -4 2 -7 12 -7
17 0 17 -1 1 -19 -17 -19 -17 -20 6 -24 22 -4 -17 -6 -212 -13 -47 -1 -91 -3
-97 -3 -7 -1 -13 -5 -13 -11 0 -6 67 -11 178 -12 97 -1 156 -3 130 -5 -27 -2
-48 -6 -48 -9 0 -3 7 -19 16 -35 14 -28 18 -30 52 -24 20 4 47 7 60 7 12 0 22
6 22 14 0 8 -5 14 -12 14 -6 0 -4 6 5 13 13 9 53 11 150 7 72 -3 192 -4 265
-2 l132 3 0 79 c0 77 0 79 -35 107 l-34 28 34 44 c19 23 37 51 40 62 4 10 13
19 21 19 8 0 14 5 14 10 0 6 9 10 19 10 26 0 77 61 91 108 18 57 10 95 -20
103 -14 4 -19 7 -12 8 6 1 12 6 12 12 0 5 -5 7 -10 4 -6 -3 -14 4 -19 17 l-10
23 0 -24 c-1 -24 -2 -24 -15 -6 -8 11 -12 23 -10 27 2 4 0 9 -6 13 -5 3 -10
-3 -10 -14 0 -38 -17 -22 -39 37 -20 56 -49 95 -67 91 -25 -4 -126 2 -121 7 4
4 31 7 62 6 30 0 55 4 55 8 0 9 -35 33 -63 43 -14 5 -17 3 -13 -11 4 -12 1
-19 -7 -19 -10 0 -11 11 -1 56 7 31 15 64 18 74 3 9 8 24 11 34 5 15 7 15 18
-1 19 -26 42 -10 58 41 11 38 20 48 42 54 26 7 30 4 47 -37 25 -57 53 -59 96
-8 27 33 32 36 53 25 18 -10 22 -19 20 -53 -4 -52 15 -64 59 -36 18 11 32 24
32 29 0 11 -120 92 -127 85 -3 -3 -18 3 -32 13 -63 45 -104 63 -112 49 -25
-41 -25 -41 -63 -16 -42 27 -42 32 -16 116 11 35 20 68 20 73 0 5 -127 9 -302
9 l-302 0 -27 26 -27 26 -4 -23z m-128 -124 c0 -23 3 -25 48 -25 26 0 53 5 58
10 15 15 44 1 44 -20 0 -21 -21 -32 -41 -19 -8 5 -40 9 -71 9 l-58 0 0 35 c0
19 5 35 10 35 6 0 10 -11 10 -25z m330 -64 c0 -22 -5 -30 -22 -33 -39 -7 -58
2 -58 26 0 30 7 36 47 36 30 0 33 -3 33 -29z m245 19 c-3 -5 -19 -10 -34 -10
-25 0 -28 -3 -23 -27 2 -16 10 -34 16 -42 8 -11 8 -13 0 -8 -9 5 -12 -10 -13
-50 0 -63 -8 -75 -48 -79 -65 -6 -114 -14 -121 -18 -5 -3 -8 7 -7 22 l0 27 75
-3 75 -4 -1 44 c-3 69 -3 70 -19 64 -8 -3 -15 -1 -15 4 0 6 7 10 15 10 8 0 16
7 16 15 1 8 3 20 4 25 1 6 3 17 4 25 1 11 13 15 42 15 24 0 38 -4 34 -10z
m-145 -15 c11 -13 10 -18 -5 -29 -12 -8 -16 -20 -12 -35 3 -12 0 -21 -6 -22
-7 0 -68 -1 -136 -1 -71 0 -131 -4 -141 -10 -23 -15 -52 -3 -48 19 3 16 17 17
156 14 147 -3 152 -2 152 17 0 11 -5 22 -11 24 -16 5 1 38 21 38 10 0 23 -7
30 -15z m-432 -38 c4 -21 -25 -34 -47 -20 -9 5 -51 10 -93 11 l-78 2 0 -47 c0
-30 6 -53 17 -65 15 -17 15 -21 3 -29 -8 -5 -22 -8 -30 -6 -12 2 -14 17 -11
77 2 41 5 77 8 80 5 5 170 18 208 16 11 -1 21 -9 23 -19z m72 -32 c0 -2 -6 -5
-13 -8 -8 -3 -14 1 -14 8 0 7 6 11 14 8 7 -3 13 -6 13 -8z m395 -25 c14 -16
15 -23 6 -34 -7 -8 -20 -12 -29 -9 -14 5 -13 3 2 -9 18 -14 17 -15 -15 -15
-19 -1 -28 1 -21 4 17 7 15 30 -3 30 -8 0 -15 -4 -15 -9 0 -4 -5 -8 -10 -8 -6
0 -5 8 2 20 7 10 15 15 18 9 4 -5 12 2 20 16 16 30 22 31 45 5z m-515 -35 c0
-33 -2 -35 -35 -35 -33 0 -35 2 -35 35 0 33 2 35 35 35 33 0 35 -2 35 -35z
m125 -25 c3 -5 16 -10 28 -11 16 0 13 -3 -13 -13 -42 -15 -79 -3 -59 20 13 16
35 18 44 4z m113 -17 c-10 -2 -28 -2 -40 0 -13 2 -5 4 17 4 22 1 32 -1 23 -4z
m42 -43 c0 -27 -4 -50 -10 -50 -5 0 -10 23 -10 50 0 28 5 50 10 50 6 0 10 -22
10 -50z m-321 -4 c9 -10 8 -16 -3 -26 -10 -7 -15 -28 -14 -55 1 -53 3 -54 145
-53 71 1 107 -3 112 -11 5 -8 39 -11 104 -10 62 2 94 6 90 12 -4 6 0 8 10 4
10 -3 17 -3 17 2 0 16 -13 19 -31 8 -22 -14 -54 1 -54 24 0 11 25 13 135 11
74 -2 137 -6 139 -8 10 -9 -8 -12 -86 -16 -50 -2 -85 -8 -87 -15 -6 -15 27
-23 103 -23 82 0 75 -9 -9 -11 -46 -1 -67 -6 -81 -20 -23 -23 -33 -24 -25 -4
8 22 -2 18 -15 -6 -9 -17 -8 -20 2 -14 9 6 11 3 6 -9 -4 -10 -7 -23 -7 -29 0
-6 -7 -2 -16 9 -15 18 -15 18 -9 -3 5 -17 2 -23 -9 -23 -9 0 -16 -5 -16 -11 0
-6 9 -8 20 -4 11 4 20 2 20 -4 0 -6 -6 -11 -14 -11 -15 0 -26 -21 -26 -51 0
-17 8 -19 77 -19 42 0 74 -2 72 -5 -8 -7 -149 -8 -156 -1 -4 3 -10 30 -14 59
-4 28 -10 59 -14 69 -5 11 0 18 17 23 13 4 31 16 41 26 15 16 15 19 2 19 -8 0
-15 -7 -15 -15 0 -17 -16 -20 -25 -5 -3 6 0 10 7 10 9 0 9 3 -2 10 -8 5 -44
10 -79 10 l-64 0 7 -51 c6 -46 5 -51 -14 -56 -11 -3 -20 -8 -21 -12 -6 -47 -6
-46 33 -43 37 4 38 3 38 -27 0 -29 -2 -31 -39 -31 -22 0 -42 6 -45 13 -3 6 -3
0 0 -15 4 -18 2 -28 -5 -28 -14 0 -13 230 0 252 6 8 9 -2 10 -27 1 -34 2 -36
8 -15 17 57 9 61 -118 60 -64 -1 -122 -1 -128 -1 -9 1 -13 18 -13 51 0 28 -6
59 -12 70 -11 17 -10 22 2 30 21 13 36 12 49 -4z m563 -20 c6 -11 22 -16 50
-16 23 0 38 -3 34 -7 -10 -10 -10 -10 -103 -13 -43 -1 -70 -4 -60 -7 30 -8 10
-20 -25 -15 -28 4 -30 6 -13 13 13 5 1 8 -37 8 -31 1 -59 5 -62 9 -5 8 47 14
151 16 32 1 53 6 53 12 0 6 -10 9 -24 7 -13 -3 -26 0 -30 5 -3 6 7 9 25 7 18
-1 36 -10 41 -19z m-355 -33 c-2 -25 -6 -28 -37 -28 -31 0 -35 3 -38 28 -3 25
-1 27 37 27 37 0 40 -2 38 -27z m-284 -130 c7 -37 2 -43 -39 -43 -32 0 -34 2
-34 35 0 33 2 35 34 35 29 0 34 -4 39 -27z m640 -46 c-2 -4 -3 -16 -3 -27 0
-30 -65 -29 -73 1 -10 36 1 46 41 40 20 -4 36 -10 35 -14z m-470 -14 c-7 -2
-19 -2 -25 0 -7 3 -2 5 12 5 14 0 19 -2 13 -5z m-78 -13 c3 -5 31 -9 63 -9
102 1 93 8 90 -76 -4 -94 -22 -104 -26 -14 -3 62 -5 67 -27 71 -14 3 -34 -1
-45 -9 -11 -8 -28 -12 -38 -10 -12 3 -11 5 6 6 12 0 22 5 22 10 0 10 -39 3
-56 -11 -14 -11 -41 -1 -48 18 -9 23 46 46 59 24z m310 0 c-3 -5 3 -10 14 -10
22 0 40 -39 22 -49 -15 -10 -72 -1 -66 9 3 5 17 7 30 4 31 -5 33 12 3 19 -13
4 -33 0 -46 -9 -23 -15 -24 -15 -17 8 9 29 17 36 22 21 4 -10 8 -9 20 2 17 17
27 20 18 5z m-385 -26 c0 -3 -7 -12 -15 -20 -8 -9 -15 -13 -15 -11 0 3 -3 12
-6 21 -4 12 0 16 15 16 12 0 21 -3 21 -6z m180 -24 c0 -5 -4 -10 -10 -10 -5 0
-10 5 -10 10 0 6 5 10 10 10 6 0 10 -4 10 -10z m-107 -20 c4 0 7 -20 7 -45 0
-25 -4 -45 -9 -45 -11 0 -21 25 -21 49 0 16 -9 18 -62 18 -35 0 -68 -4 -75 -9
-16 -13 -54 8 -47 26 4 10 28 12 102 10 53 -2 100 -4 105 -4z m42 0 c-3 -5
-10 -10 -16 -10 -5 0 -9 5 -9 10 0 6 7 10 16 10 8 0 12 -4 9 -10z m385 0 c0
-5 -2 -10 -4 -10 -3 0 -8 5 -11 10 -3 6 -1 10 4 10 6 0 11 -4 11 -10z m610
-50 c0 -5 -4 -10 -10 -10 -5 0 -10 5 -10 10 0 6 5 10 10 10 6 0 10 -4 10 -10z
m-745 -380 c3 5 10 10 16 10 5 0 4 -8 -2 -18 -15 -24 -49 -23 -49 1 0 16 3 17
14 8 10 -8 16 -9 21 -1z m32 -156 c-3 -3 -12 -4 -19 -1 -8 3 -5 6 6 6 11 1 17
-2 13 -5z"/>
<path d="M2210 2440 c0 -5 4 -10 9 -10 6 0 13 5 16 10 3 6 -1 10 -9 10 -9 0
-16 -4 -16 -10z"/>
<path d="M2958 2388 c-25 -27 -29 -38 -25 -68 2 -20 1 -44 -4 -52 -18 -33 15
-64 51 -47 8 4 37 15 63 24 37 13 52 25 64 50 30 64 -8 125 -78 125 -33 0 -47
-6 -71 -32z m96 -45 c5 -13 -19 -43 -34 -43 -4 0 -10 9 -13 20 -3 11 -1 20 5
20 5 0 7 4 3 9 -3 6 4 9 15 8 10 -1 22 -7 24 -14z"/>
<path d="M1292 2298 c5 -15 28 -23 28 -10 0 5 -7 13 -16 16 -10 4 -14 1 -12
-6z"/>
<path d="M2983 2139 c-26 -10 -53 -58 -53 -95 0 -16 12 -38 34 -60 18 -18 31
-36 28 -39 -3 -3 18 4 47 16 82 34 104 95 54 148 -30 31 -75 44 -110 30z m86
-93 c0 -12 -3 -15 -6 -8 -2 6 -9 12 -14 12 -6 0 -7 -4 -4 -10 3 -5 -3 -10 -14
-10 -11 0 -23 5 -26 10 -3 6 -1 10 4 10 6 0 11 8 11 18 0 10 3 22 7 25 11 11
43 -25 42 -47z"/>
<path d="M2962 1834 c-35 -37 -37 -46 -21 -93 11 -31 52 -61 83 -61 47 0 96
51 96 99 0 33 -42 72 -86 80 -38 7 -43 5 -72 -25z m105 -26 c24 -22 30 -52 13
-63 -6 -4 -7 -11 -4 -17 4 -6 2 -8 -4 -4 -6 3 -13 2 -17 -4 -11 -17 -41 -11
-64 14 -19 20 -20 27 -10 49 9 20 38 43 58 46 3 1 15 -9 28 -21z"/>
<path d="M2114 1804 c3 -9 6 -20 6 -25 0 -5 14 -9 30 -9 17 0 30 5 30 10 0 6
-9 10 -19 10 -10 0 -21 7 -25 15 -3 8 -10 15 -17 15 -6 0 -8 -7 -5 -16z"/>
<path d="M1518 1725 c-3 -6 -13 -43 -24 -83 -14 -57 -20 -68 -26 -53 -4 12
-12 21 -18 21 -6 0 -3 11 5 24 18 26 11 50 -20 76 -13 11 -18 10 -33 -4 -23
-20 -31 -20 -49 2 -12 15 -13 13 -7 -21 4 -25 1 -44 -9 -60 -13 -21 -13 -25 7
-48 12 -14 27 -24 33 -22 6 2 13 -9 16 -24 3 -15 9 -36 13 -47 6 -16 5 -17
-14 -7 -14 7 -22 21 -22 36 0 14 -4 25 -9 25 -15 0 -41 -42 -34 -53 3 -6 1 -7
-5 -3 -17 10 -42 -34 -42 -74 0 -29 6 -39 35 -58 24 -15 35 -30 35 -47 0 -27
-33 -55 -66 -55 -12 0 -27 -7 -34 -15 -11 -13 -7 -15 23 -15 22 0 39 -6 44
-15 7 -12 14 -11 45 10 21 14 41 25 45 24 4 -1 23 -1 42 0 42 1 35 12 -8 13
l-32 1 33 31 c38 36 40 34 59 -61 17 -92 33 -80 25 20 l-7 83 47 2 c84 3 96
17 19 22 l-69 5 -9 45 c-7 32 -4 83 8 176 16 120 17 173 3 149z"/>
<path d="M1886 1587 c3 -10 9 -15 12 -12 3 3 0 11 -7 18 -10 9 -11 8 -5 -6z"/>
<path d="M2985 1568 c-69 -40 -56 -145 20 -164 60 -15 124 50 109 111 -13 52
-81 80 -129 53z m97 -40 c13 -22 9 -59 -9 -81 -13 -16 -27 -21 -51 -19 -28 3
-36 10 -49 40 -10 25 -12 37 -4 40 6 2 11 10 11 17 0 34 81 36 102 3z"/>
<path d="M1860 1551 c0 -6 4 -13 10 -16 6 -3 7 1 4 9 -7 18 -14 21 -14 7z"/>
<path d="M2730 1516 c0 -2 8 -10 18 -17 15 -13 16 -12 3 4 -13 16 -21 21 -21
13z"/>
<path d="M2239 1166 c-2 -3 -31 -8 -64 -11 -69 -8 -66 -7 -57 -22 6 -10 50
-17 94 -14 18 1 48 27 48 42 0 9 -13 12 -21 5z"/>
<path d="M1118 1149 c-42 -24 -9 -30 77 -15 17 2 61 8 100 11 38 4 72 8 74 11
9 9 -235 3 -251 -7z"/>
<path d="M2025 1059 c-42 -7 -126 -16 -172 -18 -7 -1 -13 -4 -13 -8 0 -5 53
-9 118 -11 115 -3 118 -3 141 22 l24 26 -24 -1 c-13 -1 -46 -5 -74 -10z"/>
<path d="M1389 1014 c-6 -7 0 -19 16 -34 19 -18 32 -22 59 -17 29 5 42 0 72
-24 20 -16 41 -29 46 -29 5 0 6 -5 2 -11 -4 -8 -9 -7 -16 2 -6 10 -7 7 -3 -8
3 -13 7 -37 7 -53 2 -53 50 -63 96 -20 29 27 48 16 61 -35 10 -38 14 -43 47
-50 32 -6 44 -1 92 32 31 21 57 33 59 27 2 -6 10 -19 17 -29 12 -17 15 -17 57
2 53 24 249 150 249 161 -1 4 -17 17 -37 30 -30 20 -40 22 -58 12 -19 -10 -21
-18 -17 -60 4 -44 2 -50 -23 -66 -30 -20 -24 -24 -78 48 -11 15 -19 16 -49 7
-30 -8 -38 -16 -43 -42 -10 -45 -10 -45 -52 -38 -29 5 -38 12 -43 31 -3 14
-17 30 -30 37 -19 9 -20 13 -7 13 21 0 22 16 1 24 -26 10 -34 7 -34 -11 0 -28
-40 -41 -78 -26 -33 14 -38 28 -33 101 2 38 11 36 -147 36 -78 1 -127 -3 -133
-10z m262 -61 c5 -63 4 -66 -28 -67 -18 -1 -28 3 -23 8 12 12 1 37 -14 30 -6
-3 2 6 17 20 33 30 46 33 48 9z m-36 -92 c-3 -6 -11 -11 -17 -11 -6 0 -6 6 2
15 14 17 26 13 15 -4z"/>
<path d="M1623 944 c-14 -14 -7 -44 10 -44 6 0 7 3 4 7 -4 3 -3 11 3 17 14 18
-2 37 -17 20z"/>
<path d="M3363 2794 c-9 -24 11 -38 37 -24 17 9 19 14 9 26 -15 19 -38 18 -46
-2z"/>
<path d="M3552 1968 c3 -20 10 -23 61 -26 46 -2 59 0 64 14 9 23 -14 34 -75
34 -50 0 -53 -2 -50 -22z"/>
<path d="M3596 1724 c-8 -21 -8 -21 14 -27 21 -5 45 16 35 33 -10 16 -42 12
-49 -6z"/>
<path d="M1962 343 c3 -40 6 -48 23 -48 17 0 20 8 23 48 3 45 2 47 -23 47 -25
0 -26 -2 -23 -47z"/>
<path d="M2132 343 c2 -40 6 -48 23 -48 27 -1 31 7 27 55 -4 35 -7 40 -29 40
-23 0 -24 -3 -21 -47z"/>
</g>
</svg>
